<svg xmlns="http://www.w3.org/2000/svg" xmlns:xlink="http://www.w3.org/1999/xlink" version="1.1" x="0px" y="0px" viewBox="0 0 100 125" enable-background="new 0 0 100 100" xml:space="preserve"><polygon stroke="#FFFFFF" stroke-miterlimit="10" points="4.193,45.398 48.322,67.665 4.193,89.931 " fill="#000000"/><polygon stroke="#FFFFFF" stroke-miterlimit="10" points="95.444,89.666 51.313,67.4 95.444,45.133 " fill="#000000"/><polygon stroke="#FFFFFF" stroke-miterlimit="10" points="4.193,90.203 49.818,64.418 95.444,90.203 " fill="#000000"/><rect x="38.5" y="33.08" fill="none" width="22.637" height="21.603"/><text transform="matrix(1 0 0 1 40.8208 50.1377)" font-family="'MyriadPro-BoldIt'" font-size="24.0245">@</text><rect x="19.375" y="28.188" width="1" height="24.063"/><rect x="79.191" y="28.188" width="1" height="24.063"/><rect x="19.375" y="28.184" width="60.816" height="1"/><polygon points="33.74,29 50.102,19.348 66.463,29 "/><polygon points="20.375,52.93 6.11,44.996 20.375,37.063 "/><polygon points="79.191,37.063 93.456,44.996 79.191,52.93 "/><text x="0" y="115" fill="#000000" font-size="5px" font-weight="bold" font-family="'Helvetica Neue', Helvetica, Arial-Unicode, Arial, Sans-serif">Created by Martin Whitaker</text><text x="0" y="120" fill="#000000" font-size="5px" font-weight="bold" font-family="'Helvetica Neue', Helvetica, Arial-Unicode, Arial, Sans-serif">from the Noun Project</text></svg>