<svg xmlns="http://www.w3.org/2000/svg" viewBox="0 0 100 125"><path d="M41.3 75.7c-.1 0 0 .1.1.1 4.6-2 36.8-15.8 44-18.1.8-.3 1.7.5 1.5 1.3-.7 3.2-5.8 8.5-5.8 8.5s10.1-5.3 11.2-12c.1-.8-.3-1.7-1-2.1-9.2-5.2-45.3 19.1-50 22.3zm-3.1-6.5c4.4-3 32.9-22.6 39.5-26.4.8-.4 1.7.1 1.7 1-.1 3.3-4 9.5-4 9.5s8.9-7.2 8.6-13.9c0-.8-.6-1.6-1.4-1.9-10-3.4-40.4 27.3-44.6 31.6 0 .1.1.2.2.1zm-3.7-4.1s0 .1 0 0c2.9-3.4 25.7-30.7 31.2-36.2.6-.6 1.7-.4 1.9.5.8 3.2-1.3 10.2-1.3 10.2s6.6-9.3 4.6-15.8c-.3-.8-1-1.4-1.8-1.4-10.8-.5-32.2 38.3-34.6 42.7zM28 61c2.7-5.4 17.7-35.7 21.7-42 .5-.8 1.6-.7 2 0 1.6 2.9 1.1 10.3 1.1 10.3s4.3-10.6.8-16.4c-.4-.7-1.3-1.1-2.1-1-10.3 1.9-21.8 42.5-23.6 49-.1.1 0 .2.1.1zM15.3 89.3c10 4.4 19.2-3.8 23.1-8 1.2-1.3 1.1-3.2 0-4.5-4.6-4.8-15.2-16.1-16.5-16.2-1.1-.1-2.9.6-1.4 2.6 1.3 1.8 11.7 12.7 14.1 15.2.3.3.3.8 0 1.1-2 2.4-10.1 11.1-17.8 7.1-7.3-3.8-1.4-16.7.2-20.5.1-.2-.2-1.4-2.2 1.4-1.9 2.7-10.7 16.9.5 21.8z"/><text y="115" font-size="5" font-weight="bold" font-family="'Helvetica Neue', Helvetica, Arial-Unicode, Arial, Sans-serif">Created by Nikhil Singhal</text><text y="120" font-size="5" font-weight="bold" font-family="'Helvetica Neue', Helvetica, Arial-Unicode, Arial, Sans-serif">from the Noun Project</text></svg>