<svg xmlns="http://www.w3.org/2000/svg" viewBox="0 0 100 125"><g fill="#fff"><path d="M50 5C32.323 5 17.994 19.33 17.993 37.007 17.993 54.683 50.974 95 50.974 95s31.033-40.317 31.033-57.993C82.007 19.33 67.677 5 50 5zm0 6.497a25.51 25.51 0 0125.51 25.51A25.51 25.51 0 0150 62.517a25.51 25.51 0 01-25.51-25.51A25.51 25.51 0 0150 11.497z"/><path d="M41.921 28.416a10.036 10.036 0 00-2.688.342c-2.047.556-3.767 1.768-4.95 3.487a9.4 9.4 0 00-.591 1.012h-.002c-.19.372-.361.758-.48 1.087-.633 1.764-.785 3.736-.444 5.773.566 3.38 2.452 6.664 5.201 9.058 2.158 1.878 4.724 3.087 7.286 3.431a11.15 11.15 0 002.112.087c.169-.01.177-.01.226.016.028.015.133.052.232.082.86.266 2.09.723 3.152 1.17 1.062.447 1.886.833 2.93 1.37a33.46 33.46 0 012.327 1.301 38.45 38.45 0 011.874 1.237l2.696 3.173c.486.571.49.577.884 1.042v-.894h1.246c-.446-.524-.478-.558-1.053-1.235l-2.769-3.26a65.199 65.199 0 01-1.4-3.53 49.95 49.95 0 01-1.014-3.19c-.415-1.508-.71-2.934-.849-4.117a4.41 4.41 0 00-.043-.302c-.014-.065-.012-.078.02-.254.299-1.51.283-3.096-.046-4.738a12.582 12.582 0 00-.393-1.494c-.147-.458-.233-.7-.386-1.078-1.196-2.952-3.397-5.616-6.075-7.353a12.841 12.841 0 00-1.292-.746 11.653 11.653 0 00-1.003-.474c-1.566-.658-3.167-.996-4.708-1.004zm-.157 1.212h.048l.204.242c.113.133.203.245.199.25a92.99 92.99 0 01-1.122.946c-.003.001-.203-.23-.443-.514-.292-.346-.433-.52-.429-.528a4.43 4.43 0 01.37-.307 7.811 7.811 0 011.173-.089zm.385.005a5.151 5.151 0 01.588.037c.008.009-.333.296-.346.29a5.755 5.755 0 01-.272-.321c0-.003.009-.005.03-.005zm.909.069l.046.003c.155.01.776.12 1.085.192l.105.024.165.195c.121.144.163.198.157.208-.01.016-1.1.935-1.115.94a27.11 27.11 0 01-.95-1.122 3 3 0 01.254-.226l.253-.214zm-2.945.091c.025 0 .026-.002-.016.033-.038.03-.05.03-.055 0-.002-.01 0-.013.003-.017l-.003-.001c.004-.004.01-.005.023-.008a.35.35 0 01.048-.006zm-.349.078c.012 0 .035.02.07.06.029.034.053.067.05.071-.003.011-1.132.965-1.149.97-.015.005-.487-.552-.479-.567.012-.021.37-.174.666-.283.252-.093.776-.249.842-.251zm4.926.161c.006-.005.038.002.096.018.056.016.101.03.107.033.01.005.003.012-.044.049-.024.019-.048.031-.054.028a.68.68 0 01-.105-.126v-.003zm.47.139a3.86 3.86 0 01.451.148c.322.117.695.272 1.023.426.104.048.188.09.192.096.003.008-.828.713-.844.718a48.335 48.335 0 01-1.027-1.21c-.003 0-.003 0 0-.003a1.25 1.25 0 01.204-.176zm-5.119.014c.008.004.206.235.442.514.27.32.428.513.423.521a34.62 34.62 0 01-1.153.968 75.202 75.202 0 01-.874-1.032c0-.003.257-.224.574-.492.408-.345.58-.484.588-.48zm2.325.11c.006 0 .222.25.48.556.382.454.467.56.461.573a40.45 40.45 0 01-1.111.943 13.17 13.17 0 01-.484-.559c-.427-.505-.475-.563-.462-.576a61.732 61.732 0 011.116-.937zm2.403.197c.003-.001.235.27.515.603.322.38.51.61.506.618-.003.007-.253.224-.558.481-.538.456-.554.467-.573.454a57.176 57.176 0 01-1.009-1.196c.003 0 .003 0 .003-.003h-.001c.013-.023.154-.146.553-.483.308-.26.564-.471.564-.474zm-6.74.022c.005 0 .126.134.266.3.202.24.253.305.248.318a.267.267 0 01-.06.06c-.028.023-.289.242-.578.487-.29.244-.533.443-.539.443a24.54 24.54 0 01-.625-.73.032.032 0 01-.006-.034c.035-.047.462-.355.716-.516.14-.09.558-.326.577-.329zm9.026.444c.018 0 .056.02.177.086l.173.093.412.489c.226.268.414.495.417.503.007.021-1.021.89-1.038.877a78.914 78.914 0 01-1.069-1.27c.003-.007.89-.757.915-.775a.02.02 0 01.013-.004zm-8.35.348c.005.002.2.231.435.509s.429.511.432.52c.004.011-.048.06-.227.21l-.59.498c-.304.256-.358.3-.371.29a31.924 31.924 0 01-.44-.513c-.35-.413-.424-.506-.418-.52.012-.022 1.17-1 1.18-.994zm2.36.094c.007.002.223.253.48.559.258.305.47.56.467.564-.003.014-1.145.973-1.155.97a27.532 27.532 0 01-.943-1.126 29.604 29.604 0 011.15-.967zm6.944.1c0-.002.01.001.024.01.051.025.427.27.51.332.013.01.024.024.02.029a.646.646 0 01-.148.113c-.01-.005-.386-.447-.403-.475-.006-.006-.003-.006-.003-.009zm-11.463.024c.005 0 .008.004.012.007.01.009.155.177.322.374.234.278.302.364.296.376-.008.021-1.153.985-1.173.988-.01 0-.1-.099-.267-.297-.14-.165-.253-.303-.257-.31 0 0 .003-.002.003-.004h-.002c.018-.04.202-.27.359-.447.21-.237.43-.457.655-.656.03-.027.04-.035.052-.031zm6.926.075c.004.002.236.275.515.605.374.443.505.604.5.614a36.52 36.52 0 01-1.117.938c-.021 0-1.035-1.203-1.022-1.216a50.574 50.574 0 011.124-.94zm2.48.295a69.734 69.734 0 011.072 1.265c.004.012-1.118.959-1.128.953a104.62 104.62 0 01-1.07-1.268 27.832 27.832 0 011.125-.95zm2.813.104a13.674 13.674 0 011.209.96c.032.03.056.058.052.063-.014.02-.426.36-.435.356a50.19 50.19 0 01-1.016-1.212c.001-.013.175-.167.19-.167zm-.374.32c.006 0 .24.272.519.604.28.33.509.607.506.61a44.22 44.22 0 01-1.032.87c-.017.006-1.032-1.2-1.023-1.216a35.18 35.18 0 011.03-.868zm-11.058.143c.009-.003.156.166.45.513.24.284.434.521.43.525-.002.005-.268.23-.589.5-.362.306-.588.49-.597.488a42.444 42.444 0 01-.873-1.025 44.6 44.6 0 011.18-1zm2.396.062c.006 0 .222.252.48.557.38.45.467.56.461.573a46.89 46.89 0 01-1.17.99c-.018.005-.96-1.11-.952-1.125.01-.02 1.168-.995 1.181-.995zm2.44.183c.008.004.24.274.515.6.403.478.501.599.495.612-.01.027-1.13.968-1.147.963a59.501 59.501 0 01-1.025-1.205c0-.003.256-.224.573-.492.431-.364.58-.484.59-.478zm-6.835.158c.02 0 .077.065.424.48.044.053.062.081.057.09-.007.014-1.13.967-1.144.971a.433.433 0 01-.068-.069l-.06-.07.022-.06c.017-.048.113-.236.214-.431.102-.195.21-.396.254-.468.12-.194.274-.424.293-.44.003-.002.005-.003.008-.003zm9.302.133c.013-.006.091.082.487.551l.537.637c.036.042.064.081.06.086-.007.01-1.114.943-1.123.946a33.23 33.23 0 01-.54-.631c-.36-.426-.534-.638-.53-.647a42.665 42.665 0 011.109-.942zm5.57.18c.018.005.338.313.532.512.184.189.42.444.553.598a.73.73 0 01.095.122c0 .005-.12.107-.264.228-.144.12-.266.22-.269.225a50.525 50.525 0 01-1.108-1.303c0-.014.448-.386.461-.382zm-3.034.166c.004-.002.238.267.517.599.418.495.508.606.502.62-.006.016-1.09.936-1.111.942-.006.002-.24-.268-.52-.599-.474-.563-.507-.604-.497-.622.01-.02 1.09-.934 1.109-.94zm-11.202.268c.009-.003.823.95.869 1.016.007.011.013.022.01.025a89.41 89.41 0 01-1.15.966 26.857 26.857 0 01-.88-1.037 72.847 72.847 0 011.152-.97zm2.39.063c.007-.002.223.247.482.554.375.444.471.563.465.575-.003.01-.235.21-.515.445l-.579.488a.342.342 0 01-.082.057 47.217 47.217 0 01-.933-1.094c-.008-.013-.016-.029-.013-.033a78.03 78.03 0 011.175-.992zm11.2.037c.01-.005.162.17.56.643.302.357.55.654.547.659-.003.015-1.028.876-1.039.871a73.708 73.708 0 01-1.092-1.294v-.003c.012-.022.142-.136.503-.44.28-.237.512-.433.52-.436zm-8.727.116c.005.003.238.275.517.606.37.439.507.604.5.614-.008.013-1.164.99-1.177.994a68.502 68.502 0 01-1.03-1.213c0-.004.26-.228.58-.498.32-.27.589-.494.592-.5.004-.003.014-.006.019-.003zm2.502.27c.009-.004.2.216.547.628.353.418.533.638.529.646-.003.007-.262.23-.576.494-.51.429-.572.478-.585.468a90.243 90.243 0 01-1.062-1.261 37.915 37.915 0 011.147-.976zm2.536.349c.006 0 .239.272.518.603.28.33.51.607.506.611a61.69 61.69 0 01-1.041.885.332.332 0 01-.087.06 50.327 50.327 0 01-1.02-1.215 51.964 51.964 0 011.124-.944zm-11.427.058c.005 0 .016.01.026.023.023.03.02.037-.034.079-.025.02-.039.028-.039.017a.473.473 0 01.038-.102c.003-.009.008-.014.008-.017zm17.09.08c.03-.01.645.795.924 1.21a.941.941 0 01.1.162 7.07 7.07 0 01-.46.386 32.654 32.654 0 01-.547-.639l-.546-.647c-.003-.005-.006-.015-.003-.02.006-.013.518-.447.533-.452zm-3.192.158c.015-.005.1.092.567.644.302.358.546.653.546.655-.004.007-1.117.95-1.126.95a34.28 34.28 0 01-.554-.648c-.354-.419-.548-.655-.543-.662a49.988 49.988 0 011.11-.939zm-13.695.004c.01.005.21.236.444.513.365.431.426.505.417.52-.013.024-1.134.967-1.147.964a7.14 7.14 0 01-.406-.477 7.74 7.74 0 01.286-1.184c.007-.015.098-.098.2-.186.16-.135.191-.157.206-.15zm2.35.077c.004-.001.219.249.479.556.364.432.471.563.465.575a53.96 53.96 0 01-1.145.973 49.898 49.898 0 01-.947-1.12c.003 0 .003 0 .003-.003h-.001c.013-.024.157-.15.566-.495.314-.266.574-.486.58-.486zm2.473.154c.008.004.966 1.136 1.004 1.185.007.012.014.028.01.034-.004.012-1.135.972-1.168.992-.01.006-.13-.13-.522-.594-.28-.331-.508-.606-.513-.612a36.434 36.434 0 011.188-1.005zm11.349.22c.007 0 .257.29.557.645.314.373.544.65.54.657a29 29 0 01-1.033.867 45.83 45.83 0 01-1.095-1.299 26.36 26.36 0 011.03-.87zm-8.82.027c.012-.004.06.049.211.227l.537.636c.187.222.34.406.338.409a50.7 50.7 0 01-1.192.994 79.46 79.46 0 01-1.068-1.266 35.188 35.188 0 011.174-1zm2.567.327c.008 0 .078.078.158.172.08.093.308.364.508.602.2.237.362.435.36.44a92 92 0 01-1.15.97c-.005.001-.239-.27-.518-.6-.476-.564-.509-.604-.498-.623a31.725 31.725 0 011.14-.961zm2.477.286c.004-.002.256.289.557.646.352.417.549.655.544.662a31.37 31.37 0 01-1.122.94 45.746 45.746 0 01-1.096-1.298c0-.01 1.096-.943 1.117-.95zm-11.37.118c.01.005.91 1.069.935 1.104.004.01.009.02.004.026-.011.02-1.145.97-1.153.966a72.241 72.241 0 01-.945-1.12 25.382 25.382 0 011.157-.977zm2.421.178c.012-.005.118.116.526.598.44.52.509.605.5.62a37.86 37.86 0 01-1.147.964 54.099 54.099 0 01-1.019-1.203v-.004c.007-.022.118-.118.559-.491.311-.263.572-.481.581-.484zm14.59.02c.01-.004.183.274.31.493.149.255.333.597.456.847a.668.668 0 01.063.15c-.008.012-.176.15-.186.154a53.891 53.891 0 01-1.075-1.275c.001-.01.416-.365.433-.37zm-3.085.067c.006-.002.252.282.56.647.302.358.547.655.544.66-.007.01-1.11.941-1.12.944a21.17 21.17 0 01-.559-.648c-.499-.59-.55-.653-.536-.666a60.505 60.505 0 011.11-.937zm-8.957.157c.008.002.25.283.539.624.288.34.525.626.53.635.004.013-.43.387-1.124.967-.027.023-.055.039-.06.036a62.883 62.883 0 01-1.066-1.26c.003 0 .003 0 .003-.004h-.003c.012-.023.15-.143.58-.507.374-.316.592-.493.6-.49zm-6.73.204c.007.002.07.073.142.158.072.085.128.159.125.164a4.919 4.919 0 01-.338.282c-.017-.01.047-.573.069-.603l.001.001v-.003zm9.31.097c.014-.007.09.078.525.593.28.331.507.605.51.61.004.01-1.158.996-1.18 1.003a31.735 31.735 0 01-1.024-1.212c0-.013 1.137-.978 1.17-.994zm8.855.005c.01.005.253.29.543.632.457.542.523.626.517.641-.009.016-.986.843-1.017.861-.013.007-.097-.089-.549-.624a19.22 19.22 0 01-.533-.644c0-.006.232-.206.513-.443.417-.352.513-.43.526-.423zm-6.338.256c.005-.002.257.29.558.647.41.485.546.653.542.663-.01.017-1.13.96-1.145.964-.007.002-.212-.232-.557-.641-.3-.355-.544-.65-.548-.655a49.243 49.243 0 011.15-.978zm-11.408.137c.006-.002.44.509.904 1.06a.3.3 0 01.051.07 94.94 94.94 0 01-1.093.92 4.61 4.61 0 01-.363-.424c-.019-.046-.032-.572-.023-.943l.004-.247.076-.065c.161-.138.435-.368.444-.371zm2.44.186c.01.003.744.862.995 1.166.017.021.029.042.026.047-.008.012-1.14.965-1.15.97-.013.003-1.025-1.2-1.022-1.217.007-.023 1.136-.97 1.15-.966zm11.528.062c.008.001.258.292.557.646.328.389.544.65.54.656-.008.024-1.118.95-1.128.943a92.05 92.05 0 01-1.091-1.295 26.059 26.059 0 011.122-.95zm-9.016.202c.01.005 1.011 1.185 1.055 1.244.009.011.016.026.013.03-.002.009-1.114.95-1.142.966-.011.007-.11-.105-.549-.626a21.24 21.24 0 01-.533-.643c0-.006.254-.224.563-.485.31-.26.569-.477.572-.483.004-.005.015-.006.021-.003zm11.574.174c.004.001.248.286.54.632.436.517.53.635.525.648a46.49 46.49 0 01-1.113.944 1.17 1.17 0 01-.128-.14c-.785-.928-.954-1.131-.95-1.137a60.495 60.495 0 011.126-.947zm-8.993.125c.006-.002.24.269.522.601.28.333.51.61.508.614a57.17 57.17 0 01-1.18.994c-.006.003-.187-.204-.51-.586a78.948 78.948 0 01-.508-.606c-.006-.009-.009-.02-.006-.025.006-.013 1.16-.988 1.174-.992zm11.754.033c.01.005.129.27.206.457.026.064.05.12.047.124 0 .005-.012-.004-.027-.02-.05-.055-.364-.43-.367-.44.003 0 .003 0 .003-.003h-.003a.546.546 0 01.14-.118zm-9.212.207c.005-.002.256.289.557.646.302.357.55.654.547.658-.002.008-1.169.997-1.182 1.001a77.918 77.918 0 01-1.099-1.298v-.003c.012-.023.153-.145.58-.506.323-.272.59-.498.596-.498zm8.89.062a25.5 25.5 0 01.832.987c.009.016.038.098.066.18.036.103.05.158.042.17-.012.022-.91.783-.924.78a88.873 88.873 0 01-1.053-1.24 50.824 50.824 0 011.037-.877zm-17.866.257c.01-.003.79.908 1.001 1.17.02.022.034.044.03.048-.002.004-.248.212-.546.463-.356.3-.545.455-.554.45a59.97 59.97 0 01-1.017-1.202v-.003c.012-.023.148-.142.534-.467.297-.25.544-.46.552-.46zm11.562.034c.003 0 .253.291.555.649.394.467.548.654.542.663-.007.012-1.133.966-1.146.97a3.035 3.035 0 01-.192-.216l-.549-.65c-.227-.27-.362-.436-.358-.443.006-.01 1.138-.97 1.148-.973zm-9.05.23c.004-.001.25.283.544.632.461.546.535.636.526.65-.013.023-1.134.967-1.147.965-.01-.001-1.07-1.25-1.075-1.268a49.01 49.01 0 011.152-.978zm11.61.157a88.1 88.1 0 011.075 1.267 29.02 29.02 0 01-1.13.951 86.866 86.866 0 01-1.07-1.267 31.844 31.844 0 011.124-.951zm-9.054.17c.006-.002.24.269.522.602.28.333.512.61.509.613a39.03 39.03 0 01-1.156.97 45.412 45.412 0 01-1.02-1.202c.003 0 .003 0 .003-.003h-.002c.012-.024.153-.146.564-.494.314-.265.575-.486.58-.486zm-6.637.131a.63.63 0 01.077.08c.058.068.068.086.062.1-.013.023-.093.09-.106.087a1.103 1.103 0 01-.033-.267zm18.225.05a49.233 49.233 0 011.042 1.245c-.003.007-.253.222-.557.48-.442.372-.556.464-.569.458a62.28 62.28 0 01-1.045-1.232 31.394 31.394 0 011.129-.952zm-9.035.066c.007.004.257.296.555.649.297.353.542.646.54.65 0 .005-.066.062-.144.128l-.59.497c-.412.348-.448.377-.463.364-.008-.008-.256-.3-.55-.648-.49-.58-.534-.636-.525-.653.006-.01.27-.239.587-.507.407-.343.581-.484.59-.48zm-8.887.239c.005.003.234.27.507.595l.507.6a.026.026 0 010 .023 37.19 37.19 0 01-.865.732c-.02.006-.189-.654-.275-1.077a7.646 7.646 0 01-.11-.67c0-.003 0-.005.004-.008.029-.042.217-.203.232-.195zm11.501.09c.007.005.257.296.555.65.322.381.541.647.537.654a41.71 41.71 0 01-1.181.994 24.254 24.254 0 01-.524-.611c-.548-.65-.58-.685-.575-.692.003 0 .003 0 .003-.003.003-.005.267-.232.589-.504.405-.343.59-.492.597-.487zm8.647.152c.012-.004.116.375.197.717.07.3.185.9.185.976.003.013 0 .024 0 .026a3.387 3.387 0 01-.231.187 47.045 47.045 0 01-.997-1.184h-.002c.002-.01.834-.717.848-.721zm-17.705.072c.007-.002.424.486 1.03 1.208.03.034.05.066.047.07-.01.02-1.09.925-1.096.92-.01-.004-1.068-1.257-1.072-1.268a39.246 39.246 0 011.09-.93zm11.633.132c.01-.004.148.154.55.631.296.35.536.64.532.645a43.59 43.59 0 01-.578.49c-.38.32-.577.48-.583.475a46.32 46.32 0 01-.533-.626l-.53-.63c-.004-.004-.007-.013-.004-.018.007-.013 1.13-.961 1.145-.967zm-9.064.199c.01.005.816.955.99 1.166.02.024.028.042.024.05-.01.02-1.114.95-1.138.96-.017.008-.06-.041-.527-.595-.416-.493-.505-.604-.5-.618a29.83 29.83 0 011.151-.963zm11.597.148c.008-.002 1 1.164 1.04 1.223.01.01.014.025.01.03a84.7 84.7 0 01-1.108.935c-.005.004-.02.003-.025-.004a57.672 57.672 0 01-1.033-1.233c0-.012 1.096-.944 1.117-.95zm-9.091.119c.007 0 .258.291.557.646.307.363.543.65.54.656-.003.006-.262.229-.576.494-.403.338-.577.478-.583.472a127.663 127.663 0 01-1.092-1.293 30.36 30.36 0 011.154-.975zm11.606.208c.007.002.234.266.504.587.298.354.492.59.488.597a28.69 28.69 0 01-1.127.942 71.14 71.14 0 01-.99-1.175 24.547 24.547 0 011.125-.951zm-8.991.122c.006 0 .257.291.556.646.305.36.544.65.54.656-.007.022-1.17.996-1.183.992a50.724 50.724 0 01-1.094-1.299 36.914 36.914 0 011.181-.995zm-8.966.151c.008-.002.216.238.547.63.294.348.536.638.533.641 0 .004-.251.22-.557.477-.372.315-.56.468-.57.465a28.23 28.23 0 01-.693-.81 4.99 4.99 0 01-.204-.603c.01-.017.925-.794.944-.8zm11.581.179c.006 0 .251.285.544.632.385.455.532.634.526.644-.007.014-1.16.988-1.174.993a17.69 17.69 0 01-.545-.63c-.436-.517-.532-.636-.526-.649.013-.024 1.162-.99 1.175-.99zm-9.073.195c.008.001.987 1.156 1.016 1.198.003.009.01.018.006.021-.004.008.033-.025-.563.478-.52.44-.526.443-.544.428a38.017 38.017 0 01-1.007-1.203 34.5 34.5 0 011.091-.922zm11.63.13c.006-.002.244.273.531.613.407.481.521.621.515.633-.003.01-.26.23-.57.492-.395.333-.569.473-.579.47a49.472 49.472 0 01-1.046-1.231 42.477 42.477 0 011.149-.977zm-9.119.135a85.89 85.89 0 011.097 1.3c0 .006-.256.229-.572.496-.439.37-.578.483-.588.477a53.78 53.78 0 01-1.092-1.3c.007-.014 1.15-.976 1.155-.973zm11.632.192c.008.002.236.266.507.587.356.422.491.587.485.596-.008.017-1.095.934-1.112.94-.01.002-.147-.153-.51-.581a96.321 96.321 0 01-.497-.594 25.099 25.099 0 011.127-.948zm2.747.007a.336.336 0 01.025.114c.007.065.016.129.013.142 0 .023 0 .023-.026-.004a1.36 1.36 0 01-.126-.157.861.861 0 01.114-.096zm-11.8.16a.636.636 0 01.12.125l.548.65c.242.287.438.526.435.53-.007.014-1.135.965-1.148.97a56.322 56.322 0 01-1.102-1.294v-.003c.013-.022.163-.153.563-.491.314-.265.575-.487.582-.487zm11.513.092c.022.011.35.41.359.435.016.051.03.528.025.892a3.535 3.535 0 01-.016.383c-.02.036-.492.427-.505.417a92.026 92.026 0 01-.991-1.176 14.48 14.48 0 01.547-.475c.303-.255.562-.466.562-.473.004-.006.013-.006.019-.003zm-8.886.246c.009.005.252.29.542.633.454.538.524.626.518.64-.01.018-1.155.984-1.172.99-.01.003-1.069-1.24-1.077-1.266a12.42 12.42 0 01.585-.508c.479-.404.59-.496.604-.49zm-8.994.118a65.87 65.87 0 011.017 1.195c.006.01.012.02.009.023l-.493.417-.558.47a.287.287 0 01-.077.055 74.68 74.68 0 01-1.018-1.209 25.635 25.635 0 011.121-.952zm11.574.176a52.457 52.457 0 011.049 1.23c.002.006.004.017 0 .022-.003.005-.27.23-.59.5-.48.404-.588.49-.598.483a73.917 73.917 0 01-1.04-1.232 42.708 42.708 0 011.178-1.003zm-9.117.147c.01.004.26.294.556.645.345.409.538.644.534.652-.006.016-1.051.9-1.08.913-.017.008-.062-.043-.565-.64-.382-.452-.545-.651-.54-.66.002-.007.248-.216.542-.465.436-.368.539-.45.553-.445zm11.649.153c.011-.005.11.107.51.58.392.465.495.591.489.604-.003.009-.26.231-.57.494-.436.368-.57.476-.58.47a48.701 48.701 0 01-.99-1.17v-.002c.008-.022.118-.119.56-.492.31-.263.571-.48.58-.484zm-15.794.16c.006.003.199.23.218.258.008.013.015.029.01.034-.01.018-.071.061-.08.057a2.971 2.971 0 01-.156-.344v-.001c.003-.004.009-.004.009-.004zm6.722.034c.005-.002.256.29.557.646.301.357.549.654.546.659-.003.01-1.132.964-1.15.97a41.707 41.707 0 01-1.105-1.304c.006-.01 1.141-.967 1.152-.97zm11.532.066c.005-.002.233.26.505.583.273.323.494.59.498.596a30.66 30.66 0 01-1.128.952 44.25 44.25 0 01-.501-.588c-.334-.395-.492-.588-.488-.597.005-.015 1.092-.94 1.114-.946zm-8.946.287c.004 0 .248.283.543.632.46.543.532.635.526.65-.013.024-1.133.965-1.147.965a25.45 25.45 0 01-.544-.633c-.491-.583-.53-.628-.52-.647l.003-.003c.017-.02 1.126-.96 1.139-.963zm-8.933.082c.009-.003.015 0 .025.008.011.009.243.28.516.603.279.33.494.593.49.6a7.47 7.47 0 01-.364.31 6.379 6.379 0 01-.302-.49c-.117-.202-.284-.51-.41-.757-.058-.114-.078-.152-.064-.182.01-.02.03-.035.065-.063a.18.18 0 01.044-.03zm11.532.227c.008.004.246.282.529.618.337.4.515.616.51.624-.004.013-1.158.989-1.175.995a49.64 49.64 0 01-1.05-1.236c-.007-.02 1.167-1.011 1.186-1zm-9.046.058c.004-.002.255.288.557.645.3.357.548.653.545.66 0 .004-.252.22-.557.477-.523.441-.556.469-.575.457a52.236 52.236 0 01-1.088-1.29c.002-.01 1.1-.943 1.118-.95zm11.61.214c.01.003.907 1.055.979 1.15.007.01.015.027.01.034-.009.024-1.172.997-1.183.99-.006-.004-.233-.27-.505-.592-.45-.532-.494-.587-.48-.6.007-.008.272-.233.588-.5.376-.318.58-.484.59-.481zm5.443.072a4.99 4.99 0 01-.04.423c-.019.164-.019.159-.029.153-.01-.005-.25-.29-.255-.3h-.003c-.002-.006.07-.072.16-.148a.92.92 0 01.167-.128zm-14.52.124c.007.002.256.293.554.646.441.523.54.645.535.658-.006.016-1.065.914-1.084.92a42.385 42.385 0 01-1.1-1.307 36.9 36.9 0 011.094-.917zm11.559.037c.004 0 .23.261.5.58l.499.591c.001.004.007.015.004.015-.001.003-.26.223-.576.489-.411.348-.579.483-.586.477a54.052 54.052 0 01-.993-1.174 33.025 33.025 0 011.15-.978zm2.454.262c.006-.002.098.102.205.23l.196.231-.013.074a4.74 4.74 0 01-.123.536 1.294 1.294 0 00-.043.165c-.007.05-.036.166-.064.26a2.027 2.027 0 01-.065.196c-.019.035-.326.295-.343.289a23.787 23.787 0 01-.866-1.034c.004-.013 1.096-.94 1.115-.947zm-11.425.059c.008.004.248.285.535.624l.53.628c.002.005.004.016 0 .023-.01.017-1.13.958-1.145.964a50.795 50.795 0 01-1.083-1.269c0-.003.257-.224.573-.491.423-.357.58-.484.59-.48zm2.562.328c.003 0 .006.002.008.004.01.01.248.287.528.619.313.371.508.608.504.616-.003.01-.505.437-1.068.91-.067.058-.08.063-.093.052a79.37 79.37 0 01-1.038-1.229c-.001-.006.246-.222.573-.497.494-.418.564-.476.586-.475zm-8.982.006c.007.001.342.395 1.054 1.239.033.04.045.061.04.07-.004.007-.111.1-.238.206-.178.148-.232.19-.242.183a2.723 2.723 0 01-.13-.154c-.367-.455-.89-1.187-.872-1.22.012-.021.377-.324.388-.324zm11.543.262c.01.003.949 1.106.985 1.158.007.01.012.022.007.029-.007.013-1.159.985-1.174.99a35.386 35.386 0 01-1.006-1.185c.01-.021 1.178-.992 1.188-.992zm-8.989.123c.008.001.259.291.557.645.343.406.544.649.54.656-.004.007-.255.224-.559.48-.378.32-.559.467-.566.461a78.375 78.375 0 01-1.094-1.293 27.08 27.08 0 011.122-.949zm11.496.089c.01-.004.137.14.512.584.367.434.496.593.49.602-.007.013-1.146.977-1.171.99-.009.006-.136-.138-.507-.578-.271-.322-.495-.59-.498-.597a34.301 34.301 0 011.174-1.001zm2.49.236c.009-.003.73.837.868 1.012.006.01.009.02.009.027-.007.012-1.136.962-1.15.969a33.495 33.495 0 01-.876-1.031c-.003-.01 1.126-.97 1.148-.977zm-11.455.077c.004.003.248.288.54.634.293.347.533.634.53.64 0 .005-.247.216-.547.468-.386.325-.546.456-.555.45-.006 0-.25-.292-.542-.638-.442-.523-.532-.63-.52-.64.038-.041 1.088-.92 1.094-.914zm2.554.323c.003-.001.243.278.532.62.29.342.523.625.52.63-.013.023-1.149.975-1.158.968a44.847 44.847 0 01-1.042-1.246 90.96 90.96 0 011.148-.972zm2.533.302c.006-.001.01 0 .015.004.007.005.234.27.503.589.421.498.489.58.48.595-.013.024-1.134.965-1.147.965-.016 0-.994-1.165-.995-1.181.003-.01 1-.862 1.127-.962.006-.006.012-.01.018-.01zm-8.924.067c.003-.001.254.29.556.648.41.484.547.652.54.663-.01.017-.368.319-.385.325-.023.01-.464-.428-.777-.765a9.816 9.816 0 01-.408-.461 7.326 7.326 0 01.474-.41zm11.437.147c.006-.002.012-.002.014 0a66.257 66.257 0 01.995 1.175c.003.008-1.162.996-1.18 1.003a59.29 59.29 0 01-1.008-1.181c0-.004 1.086-.927 1.162-.987a.034.034 0 01.017-.01zm5.085.124c.003 0 .012.01.006.019-.005.012-.009.019-.017.012-.009-.004-.006-.011-.006-.017.003-.007.01-.014.017-.014zm-2.564.086c.006-.002.206.228.445.512.24.284.436.519.433.525a61.63 61.63 0 01-1.178.994c-.01 0-.87-1.004-.879-1.03a41.77 41.77 0 011.179-1zm-11.398.03a73.644 73.644 0 011.072 1.265c.003.012-1.116.96-1.127.953a157.89 157.89 0 01-1.07-1.268 26.243 26.243 0 011.125-.95zm13.763.057c.006 0 .028.025.051.054l.042.053-.017.049c-.03.083-.351.714-.43.848-.067.113-.241.385-.31.485-.013.021-.026.034-.032.034-.009 0-.457-.536-.46-.546a40.652 40.652 0 011.157-.977zm-11.26.315c.004.002.241.28.527.62.451.534.519.618.511.632-.006.01-.25.22-.543.467-.401.339-.537.45-.548.444a88.316 88.316 0 01-1.046-1.234 31.75 31.75 0 011.099-.929zm2.523.3c.01-.006.117.115.505.575l.5.592c.003 0 .006.013.003.019a82.85 82.85 0 01-1.15.969c-.009 0-.996-1.158-1.002-1.18-.003-.01 1.102-.95 1.144-.975zm2.49.235c.011-.003-.004-.02.53.61.41.486.476.568.467.581-.004.01-.263.23-.573.492-.466.392-.566.474-.58.467a43.968 43.968 0 01-.99-1.175c0-.01 1.13-.969 1.147-.975zm-8.83.194c.013 0 .258.279 1.037 1.206a.412.412 0 01.049.067 1.52 1.52 0 01-.125.1c-.02.01-.488-.344-.803-.603a9.705 9.705 0 01-.52-.455c-.003-.01.335-.304.362-.314zm11.348.015c.006 0 .205.23.445.513.239.284.435.518.432.525a76.85 76.85 0 01-1.181 1c-.006 0-.861-1.008-.871-1.03.007-.02.122-.121.579-.507.322-.272.59-.498.596-.498zm2.392.067c.004 0 .121.131.26.295.137.163.25.299.245.305-.002.01-.015.013-.02.023l-.119.15a7.713 7.713 0 01-.915.96c-.016.01.019.049-.354-.392-.173-.205-.279-.338-.275-.345h.002a78.13 78.13 0 011.176-.996zm2.192.215c.003 0 .027.099.052.216.44 2.082 1.21 4.567 2.186 7.04.079.202.142.37.142.37-.254-.154-.519-.318-.78-.472-.692-.41-1.265-.72-2.187-1.189a31.953 31.953 0 00-1.438-.701 43.748 43.748 0 00-2.419-1.026 5.735 5.735 0 01-.318-.13c-.002 0-.006-.01-.006-.01v-.01c.006-.01.03-.017.09-.039a8.689 8.689 0 004.356-3.527c.087-.138.258-.426.295-.499.01-.019.02-.032.026-.032zm-13.397.052c.004 0 .244.276.532.617.376.445.522.623.516.632-.004.01-.218.191-.476.409l-.47.395-.088-.043a7.813 7.813 0 01-.276-.148l-.187-.106-.335-.398a5.799 5.799 0 01-.332-.411 45.77 45.77 0 011.116-.947zm2.477.345c.005 0 .233.264.507.588.274.325.499.594.496.6 0 .01-.247.215-.545.467-.381.32-.546.456-.555.45a66.943 66.943 0 01-.993-1.175 36.758 36.758 0 011.09-.93zm2.49.238a40.182 40.182 0 01.995 1.188c-.005.012-1.13.964-1.147.97-.01 0-.998-1.159-1.004-1.18a42.3 42.3 0 011.155-.978zm2.492.243c.298.368.574.627.868 1.032-.002.01-1.037.887-1.116.947a.111.111 0 01-.044.023 77.777 77.777 0 01-.868-1.027c-.007-.017 1.143-.984 1.16-.975zm2.39.064c.007 0 .148.168.315.365.168.2.3.364.297.37-.002.01-.014.02-.024.029a7.562 7.562 0 01-1.264.826c-.011 0-.071-.063-.234-.255-.29-.344-.28-.333-.277-.344.003-.01.268-.232.59-.504.407-.345.587-.493.596-.487zm-11.147.21c.004 0 .056.06.114.13.114.134.133.165.082.128a11.636 11.636 0 00-.151-.102.978.978 0 01-.124-.09l.003-.01h-.001c.01-.019.066-.066.076-.059zm2.496.326c.01 0 .136.138.512.584.368.436.495.593.49.603a2.229 2.229 0 01-.253.209c-.032.01-.571-.191-.91-.332-.23-.096-.72-.32-.715-.327.006-.011.863-.73.876-.737zm2.428.283c.008 0 .979 1.139 1.001 1.175.004 0 .007.017.004.017-.008.014-.47.398-.488.406-.05.023-1.116-.16-1.21-.208a7.401 7.401 0 01-.396-.46 39.33 39.33 0 011.09-.93zm2.496.237c.003 0 .2.234.438.514.334.396.431.515.425.527a1.75 1.75 0 01-.178.16l-.171.145-.19.024c-.382.048-1.052.087-1.096.064a6.884 6.884 0 01-.38-.455c0-.01.175-.163.535-.467.647-.546.608-.517.617-.511zm2.358.094c.007 0 .113.121.236.267.124.147.225.27.228.278.006.018-.247.131-.573.258-.282.11-.918.303-.947.288a.406.406 0 01-.095-.126 42.652 42.652 0 011.15-.965zm-6.123.745c.004 0 .046.045.093.102a.677.677 0 01.085.11c0 .01-.317-.08-.321-.09a.688.688 0 01.143-.122zm2.432.293c.006 0 .063.07.127.145.064.076.117.143.121.149.007.017-.543-.01-.565-.027 0 0 0-.01.003-.01h-.001c.024-.038.3-.271.315-.262zm2.351.085c.006 0 .017.01.021.013.008.012.003.015-.029.025a.104.104 0 01-.04.01c0-.01.003-.01.003-.01h-.001c.004-.012.034-.038.047-.038z"/><path style="line-height:normal;text-indent:0;text-align:start;text-decoration-line:none;text-decoration-style:solid;text-decoration-color:#fff;text-transform:none;block-progression:tb;white-space:normal;isolation:auto;mix-blend-mode:normal;solid-color:#fff;solid-opacity:1" d="M60.575 19.608c-.573.482-1.264.875-1.767 1.292-.423.357-.763.781-.963 1.422a3.574 3.574 0 00-.033-.016c-.524-.237-1.166-.445-1.66-.223-.53.237-.835.905-1.032 1.503-1.306-.19-2.37.098-3.42.365 2.42 2.19 4.813 4.357 6.766 6.123l.25.51c.064.214.152.45.218.64v.004c.25.5.734.834 1.275.88a1.466 1.466 0 001.362-.665 1.547 1.547 0 00.086-1.547c-.107-.207-.258-.405-.372-.57l-.29-.59c-.088-3.045-.27-6.085-.422-9.128zm-1.64 11.617c-.227-.454 0 .003 0 .003v-.003zm-1.826-2.698l.797-.39 1.064 1.428-.464.227zm1.013-.495l.634-.31.768 1.572-.338.165zm.846-.414l.737-.36.376 1.764-.344.168zm.956-.468l.767-.375.067 1.915-.458.224zm-1.245 2.821l2.146-1.05.152.311-2.146 1.05z" color="#fff" font-weight="400" font-family="sans-serif" overflow="visible" fill-rule="evenodd"/></g><text y="115" fill="#fff" font-size="5" font-weight="bold" font-family="'Helvetica Neue', Helvetica, Arial-Unicode, Arial, Sans-serif">Created by anbileru adaleru</text><text y="120" fill="#fff" font-size="5" font-weight="bold" font-family="'Helvetica Neue', Helvetica, Arial-Unicode, Arial, Sans-serif">from the Noun Project</text></svg>