<svg xmlns="http://www.w3.org/2000/svg" viewBox="0 0 90 112.5"><path d="M74.256 22.474L73.228 21.4a.496.496 0 00-.571-.105l-1.71.81c-.272-.421-.64-.788-1.058-.784-.174.003-.496.075-.693.514-.205.456-1.6 1.838-2.559 2.708l-9.896 4.53c-.347.084-7.912 1.942-10.82 3.294-.041-.013-.083-.027-.125-.029l-.475-1.28a4.686 4.686 0 001.559-1.849c.6-1.26.725-2.759.354-4.222-.658-2.597-2.787-4.482-5.061-4.482-.341 0-.682.043-1.012.126-2.575.652-4.04 3.668-3.266 6.723.325 1.283 1.011 2.39 1.894 3.184a.473.473 0 00-.044.191l-.039 2.291c-1.065.007-3.334.39-4.499 3.33l-6.767 3.453-6.715-7.861-.651-.88-1.533-1.845.943-3.057 3.601-9.028c.186.037.373.062.562.062 1.844 0 3.484-1.689 4.389-4.519 1.213-3.803-.01-6.069-1.761-6.629a2.937 2.937 0 00-.889-.139c-1.845 0-3.485 1.69-4.389 4.521-.524 1.64-.632 3.13-.31 4.308.252.924.771 1.62 1.473 2.037l-3.292 8.254a.483.483 0 00-.115.155l-1.417 3.026c-.009.001-.019-.003-.027 0a.494.494 0 00-.349.423l-.03.287c-.059-.022-.116-.045-.181-.043a.496.496 0 00-.423.253l-1.654 2.94a.496.496 0 00.379.737l.127.014-.2.425a.506.506 0 00-.043.153c-.066.56.151.838.344.973.159.112.336.15.504.15.308 0 .584-.127.658-.165a.496.496 0 00.245-.278l.171-.488 1.902.782 7.109 11.535a.497.497 0 00.597.203l9.043-3.416 4.109 11.662c-.438.188-1.844.957-2.704 3.453-.782 2.273-1.648 2.555-1.641 2.555-.025.004-.046.02-.069.027-.172.002-.23.061-.312.139a.66.66 0 00-.159.543c.124.539 1.314 1.111 1.739 1.299l-1.763 2.846-14.694-.713-1.544-.053c-.234-.025-.431.139-.494.357l-.734 2.541-2.089 5.369c-.087.225 0 .48.208.604l3.223 1.93a.495.495 0 00.744-.346l.415-2.584a.131.131 0 00.017-.018c.005-.004.007-.012.012-.018l2.652-3.326c.235.031.592.082 1.044.146 5.943.844 10.136 1.35 12.932 1.547l-10.531 2.6-1.522.26a.493.493 0 00-.411.449l-.203 2.638-.955 5.682a.497.497 0 00.326.551l3.546 1.234a.494.494 0 00.658-.491l-.117-2.611a.092.092 0 01.014-.021c.005-.01.005-.02.01-.027l1.922-3.795c2.118-.225 15.835-1.725 17.12-3.086 1.35-1.426 2.68-2.969 2.812-4.771l-.039-.002c.04-.215.073-.535.111-.998.026-.008.053-.006.077-.018.14-.064.514-.277.676-.625a.479.479 0 00.079-.264l-.001-.057c0-.006.004-.01.004-.018 0-.01-.004-.021-.005-.033l-.206-10.504c-.001-.039-.016-.074-.024-.111l.666-16.425a.454.454 0 00.11-.212c.26-.6 3.9-3.83 7.211-6.564l10.131-6.123c.502-.224 4.922-2.247 5.516-4.36a.498.498 0 00-.119-.477zM46.78 66.334c.108-.119.2-.25.259-.4l2.848-3.4.075 3.818c-.555-.098-1.622-.104-3.182-.018zm-1.746-33.193c-.836 1.444-1.691 2.208-2.493 2.208h-.011c-.825-.007-1.565-.825-1.993-1.459a.49.49 0 00.151-.336l.04-2.346c.69.394 1.445.628 2.223.628a4.14 4.14 0 001.016-.126c.164-.042.313-.119.47-.179l.597 1.61zm-3.631-11.548c.251-.064.51-.096.769-.096 1.827 0 3.551 1.57 4.1 3.734.313 1.239.211 2.5-.288 3.552-.486 1.021-1.288 1.717-2.261 1.964a3.187 3.187 0 01-.771.096c-1.824 0-3.547-1.569-4.095-3.732-.641-2.525.502-5 2.546-5.518zM22.942 10.729c.754-2.363 2.074-3.831 3.444-3.831.197 0 .394.031.587.093 1.539.491 1.988 2.654 1.117 5.382-.863 2.702-2.5 4.225-4.031 3.736-.694-.221-1.183-.787-1.415-1.635-.271-.993-.168-2.287.298-3.745zM17.774 30.35l.52.852-.599.783-.792-.086.871-1.549zm2.744 3.361a.494.494 0 00-.233-.198l-1.908-.786.913-1.193a.495.495 0 00.029-.56l-.529-.866c.005-.021.016-.038.018-.059l.016-.145 1.47 1.768.655.886 6.991 8.186a.494.494 0 00.603.12l7.286-3.718a.495.495 0 00.24-.271c.441-1.202 1.081-1.904 1.721-2.316.882.969-.278 5.227-1.141 7.002l-.012.001c-.037.013-.065.038-.098.059l-9.041 3.413-6.98-11.323zm18.333 24.42c.824-2.393 2.135-2.861 2.199-2.883a.547.547 0 00.18-.105c1.285.639 5.061 2.404 7.565 2.404.329 0 .631-.037.907-.104l.027 3.732-3.059 3.652c-.604-.41-2.231-1.453-4.011-2.094l-.051-1.348a.496.496 0 00-.616-.461l-1.879.473c-1.2-.35-2.033-.59-2.625-.748.427-.461.919-1.229 1.363-2.518zM19.466 74.023l-2.235-1.338.253-.652c.523.561 1.085.875 1.68.908.036.002.072.004.107.004.133 0 .256-.018.375-.041l-.18 1.119zm3.799-6.085a.517.517 0 00-.187.027c-1.462-1.188-1.487-2.047-1.392-2.424l14.265.68a.485.485 0 00.446-.234l2.431-3.926c.376.107.759.217 1.136.328a.498.498 0 00.26.004l1.416-.355.04 1.074a.498.498 0 00.342.453c1.275.418 2.537 1.115 3.367 1.623l-1.039 1.586-.004.006c-.812 1.238-1.581 1.773-2.855 2.66l-.267.188c-.444.256-3.192.402-16.617-1.504a68.377 68.377 0 00-1.342-.186zm1.561 14.095l.114-.684c.523.371 1.038.563 1.537.563a1.808 1.808 0 00.757-.158l.051 1.135-2.459-.856zM49.08 69.191c-.109 1.477-1.316 2.865-2.543 4.162-.93.912-13.177 2.463-16.767 2.809-.063.006-.119.035-.174.063-1.797-.93-1.896-1.824-1.851-2.17l13.245-3.268a.455.455 0 00.233-.145c.257-.049.444-.115.565-.199l.27-.189c1.301-.904 2.168-1.512 3.065-2.854a.54.54 0 00.188.023c2.04-.154 3.247-.176 3.912-.152l-.143 1.908v.012zM68.4 26.433l-10.244 6.193c-2.198 1.812-5.592 4.682-6.979 6.239-.703-2.925-2.609-5.159-3.56-6.123 3.354-1.232 9.303-2.692 9.447-2.735l10.055-4.593a.483.483 0 00.126-.083c.376-.339 2.14-1.951 2.731-2.869.107.136.232.332.325.513.122.24.413.337.655.224l1.801-.854.563.588c-.677 1.363-3.694 2.949-4.92 3.5z"/><path d="M37.718 12.486c.168 0 .329-.038.482-.095l.008.002c.07 0 .142-.015.21-.046l4.428-2.074a.495.495 0 00.039-.877l-1.891-1.107-.737-1.651a.496.496 0 00-.853-.092l-2.521 3.43a.488.488 0 00-.067.145c-.049.043-.111.07-.154.122a1.377 1.377 0 00.184 1.931c.246.201.555.312.872.312zm-.29-1.612a.38.38 0 01.293-.138c.062 0 .153.015.24.088a.376.376 0 01.053.53c-.114.136-.291.255-.537.053a.38.38 0 01-.049-.533zm1.645.07a1.372 1.372 0 00-.12-.4l1.692-1.311.925.542-2.497 1.169zM39.7 7.82l.296.663-1.781 1.379c-.004-.001-.007-.005-.011-.005L39.7 7.82z"/><text y="105" font-size="5" font-weight="bold" font-family="'Helvetica Neue', Helvetica, Arial-Unicode, Arial, Sans-serif">Created by Gilad Sotil</text><text y="110" font-size="5" font-weight="bold" font-family="'Helvetica Neue', Helvetica, Arial-Unicode, Arial, Sans-serif">from the Noun Project</text></svg>