<svg xmlns="http://www.w3.org/2000/svg" viewBox="0 0 90 112.5"><path d="M7.79 66.461a.494.494 0 00.489-.418l.38-2.363.007-.006c.004-.004.005-.012.009-.016l2.428-3.045c.215.029.533.074.931.131 5.653.803 9.29 1.225 11.647 1.406l-9.434 2.328-1.4.24a.493.493 0 00-.411.449l-.187 2.42-.878 5.227a.497.497 0 00.326.551l3.26 1.135a.494.494 0 00.658-.491l-.107-2.391.006-.008c.004-.008.004-.016.008-.023l1.761-3.475c2.02-.213 14.558-1.59 15.745-2.846 1.246-1.316 2.473-2.744 2.596-4.414l-.035-.002c.036-.199.066-.482.1-.889.017-.006.034-.004.051-.012.131-.063.486-.262.641-.592a.495.495 0 00.075-.262l-.001-.051c0-.008.004-.01.004-.018 0-.01-.004-.021-.005-.033l-.189-9.656c0-.021-.009-.041-.012-.063.051-.234.033-.558-.028-1.074-.01-.084-.019-.15-.02-.181l-.082-2.919c-.023-.931-.165-2.04-.302-3.113-.162-1.271-.33-2.586-.309-3.633.007-.341.19-.609.422-.95.3-.439.672-.985.602-1.778-.093-1.061-.462-1.608-.853-2.188-.193-.287-.393-.583-.586-.979l-.201-.413c.026-.035.064-.059.081-.101.49-.572 4.79-2.643 8.779-4.369l9.311-5.628c.464-.206 4.545-2.073 5.095-4.034a.497.497 0 00-.119-.478l-.945-.987a.494.494 0 00-.57-.105l-1.541.73c-.256-.385-.543-.719-.989-.71-.137.003-.474.058-.673.496-.186.413-1.459 1.675-2.339 2.473l-9.083 4.159c-8.021 1.903-9.711 2.734-10.466 3.26a.485.485 0 00-.189.079l-.685-.697c.907-.392 1.656-1.107 2.127-2.1.554-1.167.671-2.555.328-3.909-.61-2.406-2.583-4.152-4.691-4.152-.317 0-.634.04-.941.117-1.175.298-2.135 1.122-2.705 2.32-.554 1.167-.67 2.556-.327 3.91a5.936 5.936 0 001.734 2.928.506.506 0 00-.035.165l-.034 1.986c-.796-.043-2.189.235-3.813 2.168l-6.523 4.11-6.127-7.173-.6-.812-1.668-2.009.635-2.057 3.601-9.028c.186.037.373.062.562.062 1.844 0 3.485-1.689 4.389-4.52 1.213-3.802-.01-6.068-1.761-6.629a2.937 2.937 0 00-.889-.139c-1.844 0-3.485 1.69-4.389 4.521-1.069 3.348-.247 5.504 1.161 6.353l-3.289 8.246a.498.498 0 00-.115.155l-1.428 3.049a.483.483 0 00-.321.224l-1.521 2.703a.485.485 0 00-.027.391c-.024.03-.052.057-.069.093l-.474 1.013a.508.508 0 00-.043.152c-.066.559.151.838.344.974a.865.865 0 00.505.149c.307 0 .583-.127.658-.165a.496.496 0 00.245-.278l.379-1.08 2.281.939 8.012 9.717a.494.494 0 00.538.156l6.867-2.261 4.113 8.173-1.394 2.241c-.043.009-.087.015-.129.036-.063.033-1.547.824-2.499 3.693-.382 1.148-.598 1.809-.694 2.21l-.014.014a.64.64 0 00-.157.536c.116.502 1.151 1.012 1.58 1.203l-1.584 2.557-13.489-.652-1.419-.051c-.222-.025-.431.141-.494.357l-.674 2.332-1.921 4.938a.498.498 0 00.208.607l2.963 1.773a.481.481 0 00.255.071zm4.63 6.105l.088-.529c.47.322.934.484 1.384.484.092 0 .184-.006.275-.02.141-.021.266-.061.384-.105l.042.926-2.173-.756zm22.217-11.785c-.099 1.346-1.204 2.617-2.326 3.803-.896.836-12.112 2.254-15.394 2.57-.055.004-.103.031-.152.055-1.575-.818-1.699-1.6-1.669-1.92l12.151-2.998a.47.47 0 00.216-.127c.257-.051.421-.119.532-.195l.251-.176c1.192-.83 1.989-1.391 2.813-2.617.05.014.102.025.156.021 1.821-.137 2.931-.158 3.55-.139l-.127 1.711-.001.012zm.809-2.662c-.37-.057-1.138-.098-2.806-.008.075-.094.151-.189.196-.303l2.545-3.039.065 3.35zm6.777-33.69l9.245-4.223a.483.483 0 00.126-.083c.341-.307 1.916-1.746 2.488-2.599.089.12.188.276.262.421.121.24.412.337.654.224l1.631-.773.478.499c-.586 1.108-2.972 2.494-4.497 3.178l-9.306 5.626c-6.044 2.609-8.12 3.83-8.854 4.433l-1.891-3.877c1.014-.498 3.338-1.319 9.664-2.826zM27 28.014l.036-2.093c.625.346 1.306.554 2.006.554.146 0 .291-.011.435-.028l1.225 1.247c-.739 1.221-1.483 1.869-2.162 1.851-.689-.008-1.306-.681-1.674-1.222a.479.479 0 00.134-.309zm-1.424-9.175c.44-.928 1.169-1.561 2.052-1.784.228-.058.462-.087.698-.087 1.661 0 3.23 1.432 3.729 3.403.287 1.131.193 2.281-.262 3.24-.44.926-1.169 1.56-2.053 1.784-1.838.468-3.856-1.064-4.426-3.315-.287-1.131-.193-2.282.262-3.241zM10.38 6.2c.755-2.363 2.074-3.831 3.444-3.831.197 0 .395.031.587.093 1.539.491 1.988 2.655 1.118 5.382-.863 2.702-2.504 4.225-4.031 3.736-1.54-.492-1.989-2.654-1.118-5.38zM5.892 25.147l.428.702-.52.68-.646-.071.738-1.311zm2.516 2.937a.499.499 0 00-.194-.143l-1.707-.703.808-1.055a.498.498 0 00.029-.562l-.462-.756c.013-.021.033-.037.043-.061l1.249 1.503.604.817 6.428 7.527a.498.498 0 00.642.097l6.953-4.381a.507.507 0 00.118-.104c.494-.596.948-1.009 1.352-1.292.771.875-.291 4.786-1.059 6.38-.017.006-.034.005-.05.014l-.011.009-6.868 2.261-7.875-9.551zm17.78 19.669c.031-.017.052-.042.078-.063 1.37.617 5.56 2.4 8.14 2.4.293 0 .559-.029.804-.08l.025 3.391-2.78 3.318c-.578-.389-2.041-1.318-3.642-1.9l-.045-1.211a.494.494 0 00-.616-.463l-1.718.432c-1.451-.422-2.321-.67-2.866-.803.091-.313.264-.87.604-1.896.803-2.419 1.981-3.106 2.016-3.125zm-3.584 10.339a.485.485 0 00.446-.234l2.22-3.582c.337.096.679.193 1.016.291a.498.498 0 00.26.006l1.254-.316.035.939a.497.497 0 00.341.453c1.152.377 2.292 1.004 3.053 1.467l-.932 1.422-.005.008c-.741 1.131-1.445 1.621-2.612 2.434l-.245.172c-.422.23-2.969.357-15.26-1.389-.647-.092-1.085-.152-1.23-.17-.057-.006-.109.012-.163.023-1.276-1.039-1.336-1.797-1.262-2.146l13.084.622zM5.44 63.98l.196-.506c.476.494.988.768 1.529.797.035.002.07.004.104.004.109 0 .198-.029.296-.047l-.15.934L5.44 63.98z"/><path d="M22.969 8.291c.168 0 .329-.038.482-.095l.009.002c.07 0 .142-.015.21-.047l4.428-2.073a.495.495 0 00.04-.877l-1.891-1.108-.738-1.651a.499.499 0 00-.4-.292.493.493 0 00-.453.199l-2.521 3.43a.5.5 0 00-.067.145c-.05.044-.112.07-.155.123a1.373 1.373 0 001.056 2.244zm-.291-1.613a.383.383 0 01.293-.138.376.376 0 01.294.617c-.114.137-.29.255-.537.053a.378.378 0 01-.05-.532zm1.646.072a1.363 1.363 0 00-.12-.4l1.693-1.312.925.542-2.498 1.17zm.627-3.126l.296.663-1.781 1.379c-.004-.002-.007-.005-.011-.006l1.496-2.036zm1.496 66.015a206.293 206.293 0 00-4.821 4.373c-1.774 1.219-8.082 7.268-9.773 8.9l-.45-.168c-1.44-.502-1.283-1.641-1.259-1.773.007-.035 0-.07-.001-.107l2.968-3.461a.495.495 0 10-.752-.646l-3.035 3.541-1.611 1.086a.494.494 0 00-.192.572l2.083 6.084a.496.496 0 00.444.334l4.917.25h.025a.492.492 0 00.492-.552l-.167-1.416a.497.497 0 00-.271-.387l-2.309-1.154-.087-.291.003-.002a.496.496 0 00-.137-.689c-.026-.018-.062-.035-.092-.053l-.079-.262c1.304-1.26 8.086-7.781 9.901-9.033.022-.021 2.292-2.143 4.856-4.4a.494.494 0 00.045-.699.49.49 0 00-.698-.047zM14.429 87.604l-3.386-.174a.464.464 0 00.228-.131c.231-.248 1-.932 1.625-.996l1.466.732.067.569zm71.756-36.485c-1.226-1.75-4.04-1.682-6.854.288-1.411.987-2.399 2.106-2.856 3.239-.359.887-.369 1.756-.063 2.512l-7.621 4.57a.497.497 0 00-.188.053l-1.695.887a1.14 1.14 0 00-.332-.443l-2.188-1.369-3.225-4.76-5.188-10.733a.48.48 0 00-.172-.357l-.178-.366 1.846-1.195c.407.113.83.179 1.268.179 2.961 0 5.371-2.746 5.371-6.121s-2.41-6.121-5.371-6.121-5.371 2.746-5.371 6.121c0 .967.203 1.879.555 2.693-.009.005-.02.005-.028.011l-1.646 1.022-.199-.193a.477.477 0 00-.23-.224c-7.407-7.254-9.618-7.485-10.255-7.112l-2.924 1.262a.497.497 0 00.393.911l2.962-1.278.029-.014c.181-.026 1.833.038 7.844 5.729-1.187 1.317-3.714 1.62-4.494 1.682l-3.151-3.862a.5.5 0 00-.499-.169l-3.182.754a.497.497 0 00.228.966l2.879-.683 2.804 3.437-6.111 5.003a.495.495 0 10.629.767l6.369-5.214c.744-.047 3.73-.344 5.245-1.996.159.154.332.327.498.487-.089.772-.185 2.718.956 3.67.398.332.89.5 1.471.5.412 0 .874-.096 1.374-.264l.08.166c-.193 1.309-.927 4.145-2.531 4.736-.012.005-.02.014-.03.02-.013.006-.026.006-.038.013l-12.964 7.2c-.04.021-.068.055-.099.084a.478.478 0 00-.28.176.495.495 0 00.096.695l8.273 6.258c2.471 2.406 2.955 3.967 2.927 4.85-.018.559-.245.873-.343.984l-14.895 4.965a.491.491 0 00-.219.152c-1.836-.172-2.35-.85-2.491-1.219l10.469-5.631a.496.496 0 00-.01-.879l-6.286-3.205a.495.495 0 10-.451.883l5.442 2.775-10.311 5.545-1.313.814a.493.493 0 00-.211.57l.801 2.52 1.25 5.627a.496.496 0 00.484.387h.025l3.75-.188a.497.497 0 00.425-.701l-1.09-2.379v-.008a.143.143 0 00.003-.016v-.016l.353-4.197 14.689-4.896a.51.51 0 00.151-.08c.071-.057.704-.588.763-1.715.082-1.588-1.002-3.49-3.271-5.695l-7.713-5.84 12.147-6.745 4.013 5.294 5.03 5.689a.539.539 0 00.122.1c.183.195.637 1.01 1.139 1.988l-.655.342a.494.494 0 00-.127.096c-.392.404-.389.758-.316.982.167.525.807.67.934.693a.48.48 0 00.363-.074l.611-.4.095.195a.495.495 0 00.565.269l1.938-.469a.5.5 0 00.342-.67l-.305-.736 2.371-1.695 8.352-5.006c.589.662 1.435 1.041 2.447 1.041 1.258 0 2.703-.545 4.177-1.576 3.275-2.291 3.675-4.834 2.622-6.342zM35.234 82.73l-2.601.131-.151-.678c.273.063.536.105.778.105.42 0 .795-.096 1.121-.287.15-.09.271-.195.38-.305l.473 1.034zM58.74 32.374c2.414 0 4.379 2.301 4.379 5.129s-1.965 5.129-4.379 5.129c-.351 0-.688-.062-1.015-.153a.492.492 0 00-.239-.087c-1.801-.636-3.125-2.574-3.125-4.889 0-2.828 1.965-5.129 4.379-5.129zM52.679 44.39c-.509-.423-.642-1.316-.645-2.064a.484.484 0 00.145.028.488.488 0 00.262-.075l1.944-1.208a5.644 5.644 0 001.977 1.912l-1.641 1.063a.496.496 0 00-.222.423c-.816.26-1.434.243-1.82-.079zm9.534 17.282l-4.961-5.609-3.896-5.141c1.29-.834 1.974-2.602 2.315-3.911l4.635 9.577 3.319 4.912a.494.494 0 00.147.141l2.107 1.318c-.117.059-.334.137-.718.207-.036.008-.066.029-.1.043a1.155 1.155 0 00-.54-.072c-.408.047-.754.303-1.016.574-.743-1.432-1.094-1.883-1.292-2.039zm2.19 3.842a54.409 54.409 0 00-.407-.836c.188-.262.45-.535.641-.557.025-.002.102-.012.236.137a.458.458 0 00.134.098l.38.92-.984.238zm18.596-8.868c-2.325 1.627-4.563 1.828-5.472.529-.417-.598-.463-1.342-.134-2.158.386-.953 1.253-1.92 2.506-2.798 1.308-.915 2.556-1.398 3.61-1.398.82 0 1.465.3 1.862.868.927 1.323-.027 3.317-2.372 4.957z"/><text y="105" font-size="5" font-weight="bold" font-family="'Helvetica Neue', Helvetica, Arial-Unicode, Arial, Sans-serif">Created by Gilad Sotil</text><text y="110" font-size="5" font-weight="bold" font-family="'Helvetica Neue', Helvetica, Arial-Unicode, Arial, Sans-serif">from the Noun Project</text></svg>