<svg xmlns="http://www.w3.org/2000/svg" viewBox="0 0 100 125"><path stroke="#FFF" stroke-miterlimit="10" d="M4.193 45.398l44.129 22.267L4.193 89.931zm91.251 44.268L51.313 67.4l44.131-22.267z"/><path stroke="#FFF" stroke-miterlimit="10" d="M4.193 90.203l45.625-25.785 45.626 25.785z"/><path fill="none" d="M38.5 33.08h22.637v21.603H38.5z"/><text transform="translate(40.82 50.138)" font-family="'MyriadPro-BoldIt'" font-size="24.024">@</text><path d="M19.375 28.188h1v24.063h-1zm59.816 0h1v24.063h-1z"/><path d="M19.375 28.184h60.816v1H19.375z"/><path d="M33.74 29l16.362-9.652L66.463 29zM20.375 52.93L6.11 44.996l14.265-7.933zm58.816-15.867l14.265 7.933-14.265 7.934z"/><text y="115" font-size="5" font-weight="bold" font-family="'Helvetica Neue', Helvetica, Arial-Unicode, Arial, Sans-serif">Created by Martin Whitaker</text><text y="120" font-size="5" font-weight="bold" font-family="'Helvetica Neue', Helvetica, Arial-Unicode, Arial, Sans-serif">from the Noun Project</text></svg>