<svg xmlns="http://www.w3.org/2000/svg" xmlns:xlink="http://www.w3.org/1999/xlink" version="1.1" x="0px" y="0px" viewBox="0 0 48 60" enable-background="new 0 0 48 48" xml:space="preserve"><g><g><g><path fill="#000000" d="M0.9,4.3c1,13.8,2.1,27.5,3,41.3c0,0.8,1.3,0.8,1.3,0c-0.8-13.8-2-27.5-3-41.3C2.1,3.5,0.9,3.5,0.9,4.3     L0.9,4.3z"/></g></g><g><g><path fill="#000000" d="M2.3,11.3c6.8,0.5,13.4,0.2,20.1-0.6C29.7,9.8,36.8,8.7,44,9.6c0.8,0.1,1.1-1.1,0.3-1.2     C37.6,7.5,31,8.3,24.3,9.2c-7.3,1-14.6,1.3-22,0.8C1.5,10,1.5,11.2,2.3,11.3L2.3,11.3z"/></g></g><g><g><path fill="#000000" d="M43.2,3c0.1,13.6,2.6,26.9,2.8,40.4c0,0.8,1.3,0.8,1.3,0C47.1,29.9,44.6,16.5,44.4,3     C44.4,2.1,43.2,2.1,43.2,3L43.2,3z"/></g></g><g><g><path fill="#000000" d="M2.5,18.1c6.9-0.4,13.8-0.7,20.8-1c6.8-0.2,13.9,0.3,20.5-1.4c0.8-0.2,0.4-1.4-0.3-1.2     c-6.4,1.6-13.5,1.1-20.1,1.3c-6.9,0.2-13.9,0.6-20.8,1C1.7,16.9,1.7,18.2,2.5,18.1L2.5,18.1z"/></g></g><g><g><path fill="#000000" d="M3,24.7c7.2-0.3,14.3-0.6,21.5-0.9c6.6-0.3,13.5,0,20-1.3c0.8-0.2,0.5-1.4-0.3-1.2     c-6.4,1.3-13.2,1-19.7,1.3c-7.2,0.3-14.3,0.6-21.5,0.9C2.2,23.4,2.2,24.7,3,24.7L3,24.7z"/></g></g><g><g><path fill="#000000" d="M3.7,31c13.8-0.4,27.5-0.8,41.3-1c0.8,0,0.8-1.3,0-1.3c-13.8,0.1-27.5,0.6-41.3,1     C2.9,29.8,2.9,31.1,3.7,31L3.7,31z"/></g></g><g><g><path fill="#000000" d="M8.7,11.5C8.9,17.6,9,23.7,9.1,29.8c0,0.8,1.3,0.8,1.3,0c-0.1-6.1-0.3-12.2-0.4-18.3     C10,10.7,8.7,10.7,8.7,11.5L8.7,11.5z"/></g></g><g><g><path fill="#000000" d="M17,29.5c-0.5-6.1-0.5-12.1,0.1-18.1c0.1-0.8-1.2-0.8-1.3,0c-0.6,6-0.6,12.1-0.1,18.1     C15.9,30.3,17.1,30.3,17,29.5L17,29.5z"/></g></g><g><g><path fill="#000000" d="M22.3,10.6c0.3,6.4,0.6,12.7,0.9,19.1c0,0.8,1.3,0.8,1.3,0c-0.3-6.4-0.6-12.7-0.9-19.1     C23.5,9.8,22.2,9.8,22.3,10.6L22.3,10.6z"/></g></g><g><g><path fill="#000000" d="M31.5,29.3c-0.6-6.6-0.4-13.2,0.3-19.8c0.1-0.8-1.2-0.8-1.3,0c-0.8,6.6-0.9,13.2-0.3,19.8     C30.3,30.1,31.6,30.1,31.5,29.3L31.5,29.3z"/></g></g><g><g><path fill="#000000" d="M37.1,8.6c0.1,6.7,0.1,13.5,0.1,20.2c0,0.8,1.2,0.8,1.3,0c0-6.7,0-13.5-0.1-20.2     C38.4,7.8,37.1,7.8,37.1,8.6L37.1,8.6z"/></g></g></g><text x="0" y="63" fill="#000000" font-size="5px" font-weight="bold" font-family="'Helvetica Neue', Helvetica, Arial-Unicode, Arial, Sans-serif">Created by Creative Stall</text><text x="0" y="68" fill="#000000" font-size="5px" font-weight="bold" font-family="'Helvetica Neue', Helvetica, Arial-Unicode, Arial, Sans-serif">from the Noun Project</text></svg>