<svg xmlns="http://www.w3.org/2000/svg" viewBox="0 0 48 60"><path d="M.9 4.3c1 13.8 2.1 27.5 3 41.3 0 .8 1.3.8 1.3 0-.8-13.8-2-27.5-3-41.3-.1-.8-1.3-.8-1.3 0z"/><path d="M2.3 11.3c6.8.5 13.4.2 20.1-.6 7.3-.9 14.4-2 21.6-1.1.8.1 1.1-1.1.3-1.2-6.7-.9-13.3-.1-20 .8-7.3 1-14.6 1.3-22 .8-.8 0-.8 1.2 0 1.3z"/><path d="M43.2 3c.1 13.6 2.6 26.9 2.8 40.4 0 .8 1.3.8 1.3 0-.2-13.5-2.7-26.9-2.9-40.4 0-.9-1.2-.9-1.2 0z"/><path d="M2.5 18.1c6.9-.4 13.8-.7 20.8-1 6.8-.2 13.9.3 20.5-1.4.8-.2.4-1.4-.3-1.2-6.4 1.6-13.5 1.1-20.1 1.3-6.9.2-13.9.6-20.8 1-.9.1-.9 1.4-.1 1.3zm.5 6.6c7.2-.3 14.3-.6 21.5-.9 6.6-.3 13.5 0 20-1.3.8-.2.5-1.4-.3-1.2-6.4 1.3-13.2 1-19.7 1.3-7.2.3-14.3.6-21.5.9-.8-.1-.8 1.2 0 1.2zm.7 6.3c13.8-.4 27.5-.8 41.3-1 .8 0 .8-1.3 0-1.3-13.8.1-27.5.6-41.3 1-.8.1-.8 1.4 0 1.3z"/><path d="M8.7 11.5c.2 6.1.3 12.2.4 18.3 0 .8 1.3.8 1.3 0-.1-6.1-.3-12.2-.4-18.3 0-.8-1.3-.8-1.3 0zm8.3 18c-.5-6.1-.5-12.1.1-18.1.1-.8-1.2-.8-1.3 0-.6 6-.6 12.1-.1 18.1.2.8 1.4.8 1.3 0zm5.3-18.9c.3 6.4.6 12.7.9 19.1 0 .8 1.3.8 1.3 0-.3-6.4-.6-12.7-.9-19.1-.1-.8-1.4-.8-1.3 0zm9.2 18.7c-.6-6.6-.4-13.2.3-19.8.1-.8-1.2-.8-1.3 0-.8 6.6-.9 13.2-.3 19.8.1.8 1.4.8 1.3 0zm5.6-20.7c.1 6.7.1 13.5.1 20.2 0 .8 1.2.8 1.3 0 0-6.7 0-13.5-.1-20.2 0-.8-1.3-.8-1.3 0z"/><text y="63" font-size="5" font-weight="bold" font-family="'Helvetica Neue', Helvetica, Arial-Unicode, Arial, Sans-serif">Created by Creative Stall</text><text y="68" font-size="5" font-weight="bold" font-family="'Helvetica Neue', Helvetica, Arial-Unicode, Arial, Sans-serif">from the Noun Project</text></svg>