<svg xmlns="http://www.w3.org/2000/svg" viewBox="-9.5 5.5 24 30"><path d="M1.5 11.5a1 1 0 00-1 1v6a1 1 0 001 1h4a1 1 0 100-2h-3v-5a1 1 0 00-1-1z"/><path d="M9.571 10.429C7.682 8.54 5.171 7.5 2.5 7.5s-5.182 1.04-7.071 2.929A9.934 9.934 0 00-7.5 17.5h-2l3 4 3-4h-2c0-2.137.832-4.146 2.343-5.657S.363 9.5 2.5 9.5s4.146.832 5.657 2.343S10.5 15.363 10.5 17.5s-.832 4.146-2.343 5.657c-3.119 3.119-8.194 3.119-11.313 0a.999.999 0 10-1.414 1.414 9.967 9.967 0 007.071 2.924 9.97 9.97 0 007.071-2.924c1.889-1.889 2.929-4.4 2.929-7.071s-1.041-5.183-2.93-7.071z"/><text x="-9.5" y="44.5" font-size="5" font-weight="bold" font-family="'Helvetica Neue', Helvetica, Arial-Unicode, Arial, Sans-serif">Created by Rflor</text><text x="-9.5" y="49.5" font-size="5" font-weight="bold" font-family="'Helvetica Neue', Helvetica, Arial-Unicode, Arial, Sans-serif">from the Noun Project</text></svg>