<svg xmlns:dc="http://purl.org/dc/elements/1.1/" xmlns:cc="http://creativecommons.org/ns#" xmlns:rdf="http://www.w3.org/1999/02/22-rdf-syntax-ns#" xmlns:svg="http://www.w3.org/2000/svg" xmlns="http://www.w3.org/2000/svg" xmlns:sodipodi="http://sodipodi.sourceforge.net/DTD/sodipodi-0.dtd" xmlns:inkscape="http://www.inkscape.org/namespaces/inkscape" viewBox="0 0 100 125" version="1.1" x="0px" y="0px"><g transform="translate(0,-952.36216)"><path d="m 49.999818,957.36215 c -17.676817,4e-5 -32.006228,14.32999 -32.006375,32.00674 0,17.67671 32.980858,57.99321 32.980858,57.99321 0,0 31.032333,-40.3165 31.032333,-57.99321 0,-17.67675 -14.330146,-32.0067 -32.006816,-32.00674 z m 0,6.49684 a 25.509998,25.509998 0 0 1 25.509872,25.5099 25.509998,25.509998 0 0 1 -25.509872,25.50991 25.509998,25.509998 0 0 1 -25.509577,-25.50991 25.509998,25.509998 0 0 1 25.509577,-25.5099 z" style="opacity:1;fill:#ffffff;fill-opacity:1;stroke:none;stroke-width:2;stroke-linecap:butt;stroke-linejoin:miter;stroke-miterlimit:4;stroke-dasharray:none;stroke-dashoffset:0;stroke-opacity:1"/><path style="" d="m 41.921174,980.77796 c -0.924649,-0.005 -1.827542,0.10839 -2.688244,0.34224 -2.047017,0.55611 -3.766952,1.76749 -4.950767,3.48701 -0.191986,0.2785 -0.398819,0.63953 -0.590364,1.01152 l -0.0015,0 c -0.190222,0.37278 -0.361775,0.7583 -0.480112,1.08729 -0.633436,1.7642 -0.78529,3.73629 -0.443949,5.7736 0.565961,3.37964 2.451863,6.664 5.201113,9.05738 2.157416,1.8783 4.7235,3.0869 7.285616,3.4316 0.714875,0.096 1.42196,0.1256 2.111992,0.087 0.168612,-0.01 0.17655,-0.01 0.226237,0.016 0.02808,0.015 0.132744,0.052 0.231971,0.082 0.859527,0.2659 2.08906,0.7222 3.151744,1.1694 1.062538,0.4473 1.886343,0.8327 2.929329,1.3702 0.924649,0.4764 1.523686,0.8111 2.32794,1.3014 0.640933,0.4047 1.275839,0.8073 1.874288,1.2361 l 2.695741,3.1735 c 0.485404,0.5712 0.489079,0.5771 0.883488,1.0422 l 0,-0.8941 1.24585,0 c -0.446007,-0.5239 -0.477906,-0.5581 -1.052982,-1.2352 l -2.768508,-3.2604 c -0.513922,-1.2007 -1.014173,-2.4519 -1.40035,-3.5304 -0.362804,-1.0183 -0.75883,-2.2644 -1.013733,-3.1899 -0.41543,-1.5074 -0.70973,-2.93369 -0.848795,-4.11575 -0.01514,-0.1286 -0.03484,-0.26487 -0.04366,-0.30262 -0.01323,-0.0652 -0.01176,-0.0779 0.02132,-0.25352 0.297681,-1.50956 0.282099,-3.09651 -0.04733,-4.73856 -0.105107,-0.52345 -0.207274,-0.91305 -0.392792,-1.49386 -0.146268,-0.45826 -0.233146,-0.70085 -0.385882,-1.07754 -1.196311,-2.95191 -3.397093,-5.61609 -6.075046,-7.35359 -0.466441,-0.30259 -0.750745,-0.46631 -1.292157,-0.74535 -0.457179,-0.23566 -0.632407,-0.31876 -1.002854,-0.47462 -1.565582,-0.65822 -3.166592,-0.99566 -4.707477,-1.00403 z m -0.157147,1.21248 0.04807,0 0.204041,0.24147 c 0.112457,0.13282 0.203158,0.24566 0.198748,0.25066 -0.0074,0.0106 -1.111784,0.94281 -1.122074,0.94575 -0.0029,0.001 -0.202864,-0.2302 -0.442773,-0.51423 -0.291948,-0.34591 -0.43263,-0.51915 -0.428955,-0.528 0.01176,-0.0209 0.343987,-0.29723 0.369271,-0.30721 0.03175,-0.0121 0.439098,-0.0558 0.643727,-0.0692 0.175815,-0.0113 0.449241,-0.0219 0.529945,-0.0192 z m 0.384854,0.005 c 0.06218,-0.002 0.213596,0.004 0.403377,0.0175 0.09834,0.007 0.180519,0.0147 0.184929,0.0189 0.0074,0.009 -0.333108,0.29629 -0.346339,0.29085 -0.01176,-0.006 -0.267251,-0.30809 -0.272102,-0.32186 0,-0.003 0.0088,-0.005 0.03014,-0.005 z m 0.90892,0.0686 0.04631,0.003 c 0.155088,0.0106 0.775735,0.12037 1.084735,0.19178 l 0.105254,0.0241 0.164496,0.19495 c 0.121572,0.14401 0.163027,0.19802 0.157147,0.20816 -0.0088,0.0164 -1.099877,0.93558 -1.114871,0.94058 -0.01323,0.004 -0.953168,-1.10346 -0.950669,-1.12204 0,-0.007 0.114957,-0.10892 0.254463,-0.22653 l 0.253139,-0.21391 z m -2.944323,0.0916 c 0.02455,0 0.02543,-0.002 -0.01691,0.0322 -0.03793,0.0297 -0.04895,0.0296 -0.05483,0 -0.0015,-0.009 0,-0.0124 0.0029,-0.0167 l -0.0029,-0.001 c 0.0044,-0.004 0.01029,-0.005 0.02323,-0.008 0.01617,-0.003 0.03822,-0.006 0.04851,-0.006 z m -0.349426,0.0772 c 0.01176,0 0.03455,0.0198 0.06953,0.0606 0.02896,0.0339 0.05366,0.0667 0.05072,0.0709 -0.0029,0.011 -1.131923,0.96516 -1.148975,0.97016 -0.01529,0.005 -0.487756,-0.55264 -0.478936,-0.56705 0.01176,-0.0217 0.369859,-0.17455 0.665482,-0.28339 0.25167,-0.0928 0.776323,-0.24857 0.842181,-0.25121 z m 4.92607,0.16135 0,0 c 0.0059,-0.005 0.03807,0.002 0.09614,0.0184 0.05542,0.0158 0.101138,0.0295 0.107018,0.0322 0.0088,0.005 0.0029,0.0122 -0.0441,0.0494 -0.02396,0.0187 -0.04866,0.0314 -0.05454,0.0284 -0.0147,-0.008 -0.100697,-0.10968 -0.105107,-0.12604 l 0,-0.003 z m 0.470263,0.13868 c 0.0147,-0.004 0.221827,0.0641 0.450711,0.14786 0.32179,0.11766 0.694442,0.27292 1.0227,0.42608 0.104519,0.0486 0.188017,0.0912 0.192427,0.0968 0.0029,0.008 -0.827774,0.7122 -0.844679,0.71779 -0.0088,0.003 -1.021083,-1.18923 -1.026963,-1.20962 -0.0029,-0.001 -0.0029,-0.001 0,-0.004 l 0,0 c 0.01705,-0.027 0.181989,-0.1691 0.204775,-0.17542 z m -5.119233,0.0138 c 0.0074,0.004 0.205951,0.23548 0.441597,0.5148 0.270192,0.32038 0.428073,0.51288 0.423663,0.52082 -0.0074,0.0205 -1.143536,0.97375 -1.153827,0.96816 -0.01029,-0.005 -0.868787,-1.0213 -0.873197,-1.03189 0,-0.003 0.256814,-0.22473 0.573458,-0.49212 0.408228,-0.34515 0.579486,-0.48404 0.588306,-0.47977 z m 2.325294,0.11025 c 0.0059,0 0.221386,0.25096 0.47923,0.55644 0.382795,0.45372 0.467469,0.55942 0.461589,0.57279 -0.0059,0.0165 -1.090321,0.93656 -1.111637,0.94317 -0.0059,0.002 -0.22315,-0.24983 -0.484081,-0.55872 -0.426896,-0.50533 -0.474378,-0.5636 -0.461148,-0.57624 0.03131,-0.0351 1.108697,-0.93744 1.116047,-0.93744 z m 2.402617,0.19725 c 0.0029,-0.001 0.23447,0.27053 0.515392,0.60323 0.321496,0.3807 0.510248,0.61037 0.505838,0.61816 -0.0029,0.007 -0.253434,0.22378 -0.557877,0.48092 -0.538325,0.45587 -0.554201,0.46717 -0.573311,0.45336 -0.02602,-0.0191 -1.001385,-1.17618 -1.008735,-1.19527 0.0029,0 0.0029,0 0.0029,-0.003 l -0.0015,0 c 0.01323,-0.0234 0.153912,-0.14648 0.553613,-0.48379 0.307678,-0.25964 0.563904,-0.47081 0.563904,-0.47345 z m -6.740676,0.0215 c 0.0059,0 0.126129,0.13456 0.266223,0.30033 0.20257,0.23969 0.253874,0.30547 0.247994,0.31841 -0.0029,0.009 -0.03014,0.0359 -0.0591,0.0594 -0.02881,0.0235 -0.289301,0.24272 -0.57875,0.48723 -0.289596,0.2445 -0.532886,0.44332 -0.538766,0.44332 -0.0088,-0.001 -0.560817,-0.64454 -0.625204,-0.72956 -0.01029,-0.0123 -0.01029,-0.0255 -0.0059,-0.0342 0.03543,-0.0473 0.46203,-0.35499 0.716198,-0.51682 0.140094,-0.0893 0.558171,-0.32552 0.577281,-0.32817 z m 9.027013,0.44417 c 0.01764,0.001 0.05513,0.0209 0.176257,0.0859 l 0.17317,0.0933 0.411902,0.48868 c 0.226679,0.2689 0.414254,0.49565 0.417194,0.50388 0.0074,0.0208 -1.021082,0.89007 -1.038135,0.87684 -0.02499,-0.0207 -1.071652,-1.26518 -1.068712,-1.27076 0.0029,-0.007 0.88981,-0.75625 0.915094,-0.77406 0.0044,-0.003 0.0074,-0.004 0.01323,-0.004 z m -8.349917,0.34827 c 0.0044,0.002 0.200071,0.23146 0.434688,0.50906 0.234764,0.27764 0.428808,0.51145 0.431748,0.51968 0.0044,0.0115 -0.04836,0.06 -0.227414,0.21102 -0.127746,0.10784 -0.392939,0.33155 -0.589335,0.49729 -0.303855,0.25622 -0.358099,0.29968 -0.37133,0.29056 -0.0074,-0.006 -0.206245,-0.23725 -0.440127,-0.51394 -0.348838,-0.41231 -0.423662,-0.50586 -0.417782,-0.51909 0.01176,-0.0226 1.169262,-0.99958 1.179552,-0.99458 z m 2.359251,0.0939 c 0.0073,0.002 0.223592,0.25359 0.481141,0.55873 0.257549,0.30512 0.468646,0.55992 0.465705,0.56418 -0.0029,0.014 -1.144418,0.97281 -1.154708,0.97016 -0.01838,-0.003 -0.95008,-1.11284 -0.94273,-1.12578 0.0059,-0.0219 1.135745,-0.97111 1.150592,-0.96729 z m 6.944716,0.10049 c 0,-0.002 0.0088,0.001 0.02381,0.009 0.05116,0.0259 0.427191,0.27074 0.509954,0.33248 0.01323,0.0101 0.02367,0.0237 0.01926,0.0287 -0.0147,0.0227 -0.139065,0.1174 -0.147885,0.11313 -0.01029,-0.005 -0.385295,-0.44677 -0.402347,-0.47432 -0.0059,-0.006 -0.0029,-0.006 -0.0029,-0.009 z m -11.463147,0.0233 c 0.0044,0.001 0.0073,0.004 0.01176,0.007 0.01029,0.009 0.155382,0.17732 0.321643,0.37469 0.233882,0.27763 0.301797,0.3632 0.295917,0.37525 -0.0074,0.0218 -1.152945,0.98561 -1.172202,0.98826 -0.01029,0.001 -0.09996,-0.0987 -0.26784,-0.29717 -0.139064,-0.16419 -0.252404,-0.3029 -0.256814,-0.30922 0,0 0.0029,-0.002 0.0029,-0.004 l -0.0015,-0.001 c 0.01808,-0.04 0.202129,-0.26958 0.358394,-0.44619 0.210508,-0.23742 0.429836,-0.45766 0.655486,-0.65663 0.03043,-0.0271 0.04043,-0.0349 0.0516,-0.031 z m 6.925311,0.0755 c 0.0044,0.002 0.236822,0.27472 0.515834,0.60495 0.373828,0.44267 0.504661,0.60356 0.500251,0.61356 -0.01176,0.0221 -1.102375,0.93829 -1.117223,0.93829 -0.02161,0.001 -1.03593,-1.20342 -1.0227,-1.21621 0.02675,-0.0321 1.117958,-0.94441 1.123838,-0.94059 z m 2.479794,0.29486 c 0.0074,0.002 0.249758,0.28519 0.540383,0.62936 0.290478,0.34423 0.527006,0.62935 0.531416,0.63568 0.0044,0.0122 -1.117223,0.95851 -1.127513,0.95293 -0.01029,-0.006 -1.066213,-1.25554 -1.070623,-1.26818 -0.0044,-0.0134 1.111343,-0.95405 1.126337,-0.94979 z m 2.813196,0.10395 c 0.01029,-0.001 0.437922,0.32024 0.625498,0.47029 0.175375,0.1402 0.480847,0.39727 0.583455,0.49068 0.03293,0.029 0.05645,0.0567 0.05204,0.0617 -0.01323,0.0213 -0.42528,0.35985 -0.4341,0.35602 -0.0197,-0.0101 -1.01682,-1.19942 -1.01682,-1.21192 0.0015,-0.0123 0.175081,-0.1668 0.189928,-0.1668 z m -0.373387,0.32013 c 0.0059,0 0.239027,0.27235 0.518626,0.60352 0.279453,0.33115 0.508778,0.607 0.505838,0.61126 -0.0029,0.011 -1.014174,0.86381 -1.031226,0.86881 -0.01705,0.006 -1.032403,-1.19959 -1.023582,-1.21594 0.01029,-0.02 1.017113,-0.86765 1.030344,-0.86765 z m -11.058154,0.14299 c 0.0088,-0.003 0.15597,0.16579 0.449241,0.51306 0.240056,0.28437 0.434247,0.52088 0.431307,0.52514 -0.0029,0.005 -0.268133,0.2297 -0.589188,0.50015 -0.362362,0.30518 -0.5886,0.49046 -0.59742,0.48782 -0.01176,-0.004 -0.865848,-1.00478 -0.873198,-1.02558 -0.0029,-0.009 1.156473,-0.99324 1.179258,-1.00059 z m 2.396296,0.0623 c 0.0059,0 0.221239,0.2512 0.479083,0.55672 0.380002,0.45068 0.467616,0.55971 0.461736,0.5728 -0.0074,0.0173 -1.14971,0.9832 -1.170879,0.99025 -0.01705,0.005 -0.960076,-1.10956 -0.951256,-1.12548 0.01029,-0.0194 1.168086,-0.99429 1.181316,-0.99429 z m 2.440103,0.18232 c 0.0073,0.004 0.239027,0.27429 0.514804,0.60093 0.402494,0.47703 0.500839,0.59833 0.494959,0.61127 -0.01029,0.0274 -1.130159,0.96826 -1.147211,0.96327 -0.01176,-0.004 -1.020642,-1.18802 -1.025052,-1.20502 0,-0.003 0.25652,-0.22454 0.573018,-0.49182 0.431453,-0.36447 0.579192,-0.48422 0.589482,-0.47863 z m -6.83564,0.15791 c 0.02058,-7e-5 0.07703,0.0658 0.424398,0.48035 0.0441,0.0534 0.06159,0.0815 0.05718,0.091 -0.0074,0.0129 -1.130012,0.96618 -1.144712,0.97044 -0.0029,0.001 -0.03396,-0.03 -0.06733,-0.0689 l -0.06027,-0.0709 0.02161,-0.0591 c 0.01705,-0.0487 0.11378,-0.23648 0.214477,-0.43182 0.101726,-0.19479 0.209773,-0.39581 0.254315,-0.468 0.120396,-0.19325 0.27372,-0.42353 0.29283,-0.43986 0.0029,-0.002 0.0044,-0.003 0.0074,-0.003 z m 9.301762,0.13323 c 0.01323,-0.006 0.09158,0.0823 0.487756,0.55154 0.259754,0.30759 0.501133,0.59418 0.536561,0.63654 0.03572,0.0424 0.06365,0.0811 0.05924,0.0861 -0.0059,0.01 -1.113548,0.94339 -1.122368,0.94604 -0.0029,0.001 -0.245936,-0.28307 -0.539795,-0.63109 -0.36001,-0.42635 -0.534356,-0.63833 -0.529946,-0.64744 0.0044,-0.0146 1.078855,-0.92733 1.10855,-0.94173 z m 5.570826,0.17972 c 0.0172,0.005 0.337519,0.31359 0.531416,0.51222 0.184488,0.18909 0.420134,0.44391 0.553319,0.59807 0.05336,0.0617 0.09746,0.11747 0.09452,0.12173 0,0.005 -0.119808,0.10767 -0.263577,0.22797 -0.143769,0.12031 -0.265781,0.22112 -0.268868,0.22539 -0.0074,0.006 -1.107962,-1.28813 -1.107962,-1.30323 0,-0.0132 0.447918,-0.38597 0.461149,-0.38215 z m -3.03473,0.16596 c 0.0044,-0.002 0.237851,0.26795 0.517597,0.59921 0.41793,0.49515 0.507455,0.60606 0.501575,0.61988 -0.0059,0.0169 -1.090028,0.93628 -1.111343,0.94289 -0.0059,0.002 -0.239321,-0.268 -0.519215,-0.59949 -0.474378,-0.56251 -0.507748,-0.60356 -0.497458,-0.62247 0.01029,-0.0187 1.089733,-0.93341 1.108844,-0.94002 z m -11.201923,0.26817 c 0.0088,-0.003 0.822776,0.94974 0.868935,1.01668 0.0073,0.0106 0.01323,0.0217 0.01029,0.0247 -0.0074,0.0115 -1.138979,0.96319 -1.149269,0.96614 -0.01176,0.004 -0.885987,-1.02691 -0.880107,-1.03764 l 0,0 c 0.0059,-0.0112 1.137803,-0.96605 1.151033,-0.96987 z m 2.391151,0.0629 c 0.0059,-0.002 0.221828,0.24767 0.481141,0.5547 0.375151,0.444 0.471144,0.5623 0.465264,0.57509 -0.0029,0.009 -0.235498,0.2094 -0.515392,0.44503 -0.280041,0.23566 -0.540383,0.45492 -0.578604,0.48723 -0.03822,0.0323 -0.07468,0.0574 -0.08203,0.0574 -0.01029,-0.001 -0.882018,-1.02316 -0.932881,-1.09421 -0.0088,-0.0132 -0.01617,-0.0285 -0.01323,-0.0327 l 0,0 c 0.0059,-0.0113 1.161912,-0.9883 1.175142,-0.99256 z m 11.199571,0.0373 c 0.0088,-0.005 0.161115,0.16983 0.560375,0.64314 0.301209,0.35738 0.54935,0.65438 0.54641,0.65864 -0.0029,0.0153 -1.028727,0.87669 -1.039017,0.87169 -0.0147,-0.008 -1.087528,-1.27869 -1.091938,-1.29461 l 0,-0.003 0,0 c 0.01176,-0.0222 0.141417,-0.13583 0.50275,-0.44043 0.2796,-0.23586 0.511717,-0.43233 0.520538,-0.43527 z m -8.727275,0.116 c 0.0044,0.003 0.23741,0.27528 0.516569,0.60581 0.370889,0.43928 0.507454,0.60444 0.500104,0.61384 -0.0074,0.0131 -1.163529,0.99076 -1.176759,0.99458 -0.0059,0.002 -1.024905,-1.19779 -1.029315,-1.21307 l 0,0 c 0,-0.004 0.259607,-0.22772 0.579339,-0.49785 0.320026,-0.27008 0.5886,-0.49371 0.59154,-0.4993 0.0044,-0.004 0.0147,-0.007 0.01911,-0.004 z m 2.501698,0.26931 c 0.0088,-0.003 0.199189,0.21652 0.546998,0.6285 0.352954,0.4181 0.53318,0.63792 0.528769,0.646 -0.0029,0.007 -0.261959,0.22965 -0.575663,0.49384 -0.510395,0.42947 -0.572136,0.47873 -0.585366,0.468 -0.02205,-0.0183 -1.057687,-1.24779 -1.062097,-1.26073 -0.0029,-0.0104 1.122368,-0.96767 1.147359,-0.97561 z m 2.536095,0.3497 c 0.0059,0 0.23888,0.27186 0.51848,0.60295 0.279306,0.33108 0.50863,0.60729 0.50569,0.61155 -0.0015,0.007 -0.571989,0.49196 -1.041663,0.8849 -0.04278,0.0354 -0.08203,0.0624 -0.08644,0.0597 -0.01896,-0.01 -1.024611,-1.2067 -1.020201,-1.21479 l 0,0 c 0.0088,-0.0168 1.113842,-0.94404 1.124132,-0.94404 z m -11.426837,0.0586 c 0.0044,-0.001 0.01573,0.009 0.02602,0.0227 0.02264,0.0306 0.02029,0.0365 -0.03381,0.0784 -0.02573,0.021 -0.0391,0.028 -0.0391,0.0172 0.0029,-0.0191 0.02337,-0.0743 0.03822,-0.10163 l 0,0 c 0.0029,-0.009 0.0073,-0.014 0.0073,-0.0167 z m 17.090422,0.0793 c 0.02911,-0.0107 0.644167,0.79511 0.923473,1.20991 0.05645,0.0838 0.103637,0.15766 0.100697,0.16192 -0.0029,0.0134 -0.449976,0.3891 -0.460267,0.38646 -0.0044,-0.001 -0.251228,-0.28827 -0.546998,-0.63883 -0.296064,-0.35058 -0.541853,-0.64216 -0.546263,-0.64715 -0.0029,-0.005 -0.0059,-0.0148 -0.0029,-0.0204 0.0059,-0.0123 0.517598,-0.44633 0.532592,-0.45192 z m -3.19217,0.15848 c 0.0147,-0.005 0.100256,0.0918 0.566255,0.64401 0.301944,0.35766 0.54641,0.65255 0.54641,0.65519 -0.0044,0.007 -1.117222,0.95007 -1.126043,0.95007 -0.0029,0.001 -0.252698,-0.29091 -0.554495,-0.64859 -0.353836,-0.41886 -0.547292,-0.65474 -0.542882,-0.66209 0.0088,-0.0171 1.091644,-0.93124 1.110755,-0.93859 z m -13.695388,0.004 c 0.01029,0.005 0.209479,0.23563 0.443949,0.51251 0.365303,0.43145 0.425721,0.50571 0.416901,0.51996 -0.01323,0.0243 -1.134128,0.96736 -1.147359,0.96471 -0.01323,-0.002 -0.399848,-0.45607 -0.405728,-0.47776 -0.0059,-0.0181 0.06233,-0.36158 0.11525,-0.58198 0.0466,-0.19331 0.151561,-0.56601 0.170524,-0.60208 0.0074,-0.0146 0.09805,-0.098 0.201247,-0.18548 0.160086,-0.13524 0.190369,-0.15752 0.205216,-0.14988 z m 2.349255,0.0767 c 0.0044,-0.001 0.21977,0.24907 0.47923,0.55614 0.364714,0.43177 0.471586,0.56261 0.465705,0.57452 -0.0044,0.0134 -1.128248,0.96803 -1.145006,0.97362 -0.0074,0.002 -0.941113,-1.10214 -0.946993,-1.12062 0.0029,0 0.0029,0 0.0029,-0.003 l -0.0015,0 c 0.01323,-0.0235 0.157881,-0.14968 0.565961,-0.49441 0.314881,-0.26574 0.574047,-0.48585 0.579927,-0.4858 z m 2.474061,0.15418 c 0.0074,0.004 0.965515,1.1356 1.003442,1.18493 0.0074,0.0116 0.0147,0.0275 0.01029,0.0342 -0.0044,0.0119 -1.135157,0.97196 -1.168233,0.9917 -0.01029,0.006 -0.128921,-0.1296 -0.522007,-0.59433 -0.279747,-0.33113 -0.508043,-0.60568 -0.512453,-0.61127 l 0,0 c -0.0044,-0.011 1.177494,-1.01078 1.187785,-1.00519 z m 11.348484,0.21936 c 0.0074,0.001 0.257402,0.2913 0.556701,0.64572 0.31488,0.37271 0.544205,0.65002 0.539795,0.65634 -0.0059,0.0185 -1.019172,0.87002 -1.032402,0.86738 -0.01691,-0.003 -1.094879,-1.2834 -1.094879,-1.29891 0.0015,-0.017 1.013733,-0.87053 1.030785,-0.87053 z m -8.819592,0.0276 c 0.01176,-0.004 0.06042,0.0489 0.210803,0.2271 0.1079,0.1279 0.349426,0.41427 0.536855,0.63626 0.187428,0.22201 0.340605,0.40592 0.337665,0.40857 -0.01323,0.0217 -1.184256,0.99781 -1.191606,0.99399 -0.01323,-0.007 -1.063861,-1.25178 -1.068271,-1.26618 -0.0044,-0.0112 1.145595,-0.98974 1.174554,-0.99974 z m 2.567114,0.32645 c 0.0073,0 0.07806,0.078 0.157587,0.17198 0.07938,0.0939 0.307971,0.36496 0.508483,0.60209 0.200218,0.23718 0.361628,0.43543 0.358688,0.44042 -0.0074,0.0121 -1.139715,0.9652 -1.150005,0.96902 -0.0044,0.002 -0.237998,-0.26836 -0.517597,-0.59977 -0.475555,-0.5636 -0.50819,-0.60358 -0.4979,-0.62247 0.01529,-0.0283 1.125896,-0.96392 1.140744,-0.96127 z m 2.476706,0.28596 c 0.0044,-0.002 0.255638,0.28928 0.557289,0.6466 0.352072,0.41682 0.548174,0.65457 0.543764,0.66236 -0.0074,0.0203 -1.107227,0.94267 -1.122074,0.94003 -0.01632,-0.002 -1.095908,-1.28278 -1.095908,-1.29805 0,-0.0106 1.095761,-0.94359 1.116929,-0.95094 z m -11.370976,0.11802 c 0.01029,0.005 0.911566,1.06927 0.935968,1.10452 0.0044,0.009 0.0088,0.0208 0.0044,0.0258 -0.01176,0.0197 -1.145594,0.96997 -1.152944,0.96615 -0.01176,-0.006 -0.940819,-1.10681 -0.94523,-1.11946 l 0,0 c -0.0059,-0.0147 1.142214,-0.98426 1.157061,-0.97705 z m 2.422169,0.17858 c 0.01176,-0.005 0.117896,0.11563 0.525388,0.59749 0.439833,0.52019 0.509219,0.60548 0.500398,0.61988 -0.01323,0.0232 -1.134128,0.96706 -1.147358,0.96442 -0.01176,-0.002 -1.009764,-1.18107 -1.018584,-1.2033 l 0,-0.003 0,-0.001 c 0.0073,-0.0219 0.117456,-0.11774 0.558906,-0.49096 0.311058,-0.26296 0.572135,-0.48114 0.580956,-0.48408 z m 14.590341,0.0192 c 0.0088,-0.003 0.182137,0.27419 0.31003,0.49355 0.148326,0.25464 0.332373,0.59696 0.455121,0.84671 0.03793,0.0776 0.06718,0.14572 0.06277,0.15131 -0.0074,0.0116 -0.175374,0.14979 -0.185665,0.15273 -0.0088,0.003 -1.075033,-1.26098 -1.075033,-1.27421 0.0015,-0.01 0.415872,-0.36509 0.432777,-0.37009 z m -3.08574,0.068 c 0.0059,-0.002 0.252257,0.28189 0.560229,0.64687 0.302091,0.35775 0.546998,0.65466 0.544058,0.65893 -0.0074,0.0115 -1.110608,0.94195 -1.120898,0.94489 -0.0044,0.001 -0.255785,-0.29019 -0.557876,-0.64802 -0.499223,-0.59092 -0.549792,-0.65287 -0.536561,-0.6661 0.01808,-0.0222 1.096201,-0.93231 1.111048,-0.93657 z m -8.956451,0.15647 c 0.0074,0.002 0.250052,0.28286 0.538325,0.62391 0.288419,0.34107 0.525241,0.62672 0.529651,0.63509 0.0044,0.0131 -0.429248,0.38712 -1.123103,0.96758 -0.02719,0.0226 -0.05498,0.0385 -0.06101,0.0356 -0.01558,-0.008 -1.059597,-1.24182 -1.065478,-1.26072 0.0029,0 0.0029,0 0.0029,-0.003 l -0.0029,0 c 0.01176,-0.0232 0.149649,-0.14315 0.580368,-0.50676 0.37427,-0.31605 0.591834,-0.4939 0.600655,-0.49125 z m -6.73068,0.20414 c 0.0074,0.002 0.07086,0.0728 0.142446,0.15791 0.07174,0.0851 0.128187,0.15894 0.125247,0.16394 -0.0088,0.0166 -0.332374,0.28489 -0.338254,0.28195 -0.01676,-0.009 0.04645,-0.57266 0.06865,-0.60265 l 0.0015,0.001 0,-0.003 z m 9.310876,0.097 c 0.01323,-0.007 0.08864,0.0778 0.524066,0.59348 0.2796,0.33087 0.506866,0.60481 0.511276,0.6104 0.0029,0.009 -1.158677,0.99541 -1.179993,1.00203 -0.01323,0.004 -1.027404,-1.19406 -1.024464,-1.21191 0,-0.0126 1.136334,-0.97745 1.169115,-0.994 z m 8.854726,0.005 c 0.0088,0.005 0.252257,0.28924 0.542294,0.63252 0.457473,0.54187 0.523331,0.62578 0.517451,0.64085 -0.0088,0.0158 -0.985656,0.8423 -1.016967,0.86076 -0.01323,0.007 -0.09673,-0.0886 -0.548762,-0.6239 -0.293859,-0.34782 -0.535826,-0.639 -0.532886,-0.644 0,-0.006 0.231235,-0.20595 0.512305,-0.4433 0.416901,-0.35194 0.513335,-0.42997 0.526565,-0.42293 z m -6.337887,0.25611 c 0.0044,-0.002 0.256079,0.28961 0.557876,0.64716 0.409844,0.48508 0.545969,0.65309 0.541559,0.66324 -0.01029,0.017 -1.130012,0.95884 -1.144712,0.96384 -0.0074,0.002 -0.211979,-0.23228 -0.557583,-0.6417 -0.299739,-0.35501 -0.54347,-0.64876 -0.54788,-0.65434 -0.0029,-0.008 1.131776,-0.97188 1.15074,-0.9782 z m -11.408462,0.13696 c 0.0059,-0.002 0.440862,0.50872 0.903774,1.05974 0.02999,0.0358 0.05439,0.0674 0.05145,0.0703 -0.0059,0.0107 -1.082971,0.91641 -1.093261,0.91935 -0.01176,0.004 -0.350014,-0.39147 -0.363244,-0.42378 -0.01823,-0.0453 -0.03146,-0.5716 -0.02264,-0.9426 l 0.0044,-0.24664 0,0 0.076,-0.0652 c 0.160527,-0.13805 0.434247,-0.36859 0.443067,-0.37124 z m 2.439956,0.18605 c 0.01029,0.003 0.743688,0.86245 0.995063,1.16626 0.01676,0.0207 0.02881,0.0418 0.02587,0.0468 -0.0074,0.0123 -1.139567,0.96519 -1.149857,0.96901 -0.01323,0.004 -1.025346,-1.19915 -1.022406,-1.21594 l 0,0 c 0.0073,-0.0231 1.136186,-0.97041 1.151034,-0.96614 z m 11.528416,0.0623 c 0.0074,0.001 0.257696,0.29131 0.556553,0.64544 0.328258,0.38872 0.543911,0.64929 0.539501,0.65664 -0.0074,0.0236 -1.116929,0.9498 -1.127219,0.94259 -0.01514,-0.01 -1.08694,-1.28123 -1.09135,-1.29461 -0.0044,-0.0137 1.103404,-0.95271 1.122515,-0.95006 z m -9.015988,0.20213 c 0.01029,0.005 1.010939,1.18494 1.054893,1.24349 0.0088,0.0115 0.01617,0.0256 0.01323,0.0299 -0.0029,0.009 -1.114136,0.94958 -1.142067,0.96615 -0.01176,0.007 -0.110399,-0.10549 -0.54935,-0.62563 -0.2943,-0.34859 -0.536414,-0.63945 -0.533474,-0.64371 0,-0.006 0.254315,-0.22351 0.563316,-0.48436 0.309294,-0.26096 0.569048,-0.47734 0.571988,-0.48292 0.0044,-0.005 0.01558,-0.006 0.02146,-0.003 z m 11.573693,0.17399 c 0.0044,0.001 0.247553,0.28523 0.540089,0.63195 0.436158,0.5168 0.530681,0.63435 0.524801,0.64772 -0.0073,0.016 -1.093262,0.93715 -1.112519,0.94347 -0.0044,0.001 -0.06292,-0.061 -0.128628,-0.13896 -0.784555,-0.92894 -0.953608,-1.13184 -0.950668,-1.13728 0.0074,-0.0144 1.118105,-0.9469 1.126925,-0.9469 z m -8.992762,0.12461 c 0.0059,-0.002 0.240497,0.26858 0.52142,0.60122 0.280923,0.33262 0.51113,0.60931 0.50819,0.61357 -0.0029,0.0112 -1.161912,0.9887 -1.178965,0.9937 -0.0074,0.003 -0.187722,-0.20368 -0.5101,-0.58543 -0.27372,-0.32423 -0.503191,-0.59684 -0.509071,-0.60581 -0.0059,-0.009 -0.0088,-0.0205 -0.0059,-0.0255 0.0059,-0.0126 1.159412,-0.98743 1.174259,-0.9917 z m 11.754213,0.0325 c 0.0088,0.005 0.12804,0.26961 0.205805,0.45766 0.02558,0.0633 0.04983,0.11993 0.04689,0.12375 0,0.005 -0.01176,-0.004 -0.02676,-0.0198 -0.05086,-0.0548 -0.364861,-0.42986 -0.367802,-0.43986 0.0029,0 0.0029,0 0.0029,-0.003 l -0.0029,0 c 0.01176,-0.0227 0.13098,-0.12388 0.14127,-0.1183 z m -9.212384,0.20701 c 0.0044,-0.002 0.255639,0.28921 0.557289,0.64629 0.301356,0.3571 0.549056,0.65409 0.546116,0.65836 -0.0015,0.008 -1.168527,0.99706 -1.181757,1.00088 -0.0059,0.002 -1.089439,-1.27745 -1.09826,-1.29805 l 0,-0.003 0,0 c 0.01176,-0.0229 0.152589,-0.14527 0.579927,-0.5059 0.322819,-0.2724 0.589923,-0.49815 0.595803,-0.49815 z m 8.889419,0.0629 c 0.01176,-0.003 0.813367,0.94689 0.832625,0.98654 0.0088,0.0164 0.03778,0.0978 0.066,0.18087 0.03587,0.10199 0.04925,0.15706 0.0419,0.16911 -0.01176,0.0221 -0.910978,0.78332 -0.924208,0.78067 -0.0073,-0.001 -1.048131,-1.22769 -1.052541,-1.24063 -0.0029,-0.006 1.022994,-0.87274 1.036224,-0.87656 z m -17.865275,0.25668 c 0.0088,-0.003 0.789259,0.90805 1.000944,1.16913 0.02014,0.0232 0.03337,0.045 0.03043,0.0488 -0.0029,0.004 -0.248435,0.21192 -0.546704,0.46312 -0.3556,0.29962 -0.545234,0.4543 -0.554054,0.45047 -0.01617,-0.008 -1.009029,-1.18353 -1.016379,-1.20244 l 0,-0.003 0,-0.001 c 0.01176,-0.0227 0.147885,-0.14098 0.533768,-0.46656 0.296799,-0.25048 0.544058,-0.45911 0.551408,-0.45911 z m 11.562227,0.0339 c 0.0029,-0.001 0.252257,0.29089 0.554642,0.6486 0.394263,0.46703 0.548028,0.65384 0.542148,0.66295 -0.0074,0.0128 -1.133541,0.96618 -1.146771,0.97044 -0.0044,0.001 -0.09011,-0.0962 -0.191545,-0.21648 -0.101432,-0.12027 -0.34825,-0.4126 -0.548615,-0.64975 -0.227267,-0.2691 -0.362803,-0.43538 -0.358393,-0.44273 0.0059,-0.0109 1.138244,-0.9692 1.148534,-0.97303 z m -9.050975,0.23084 c 0.0044,-0.002 0.249906,0.28256 0.544353,0.63109 0.461442,0.54589 0.53509,0.63576 0.52627,0.65002 -0.01323,0.0234 -1.134128,0.96735 -1.147358,0.9647 -0.01029,-0.001 -1.070476,-1.25055 -1.074886,-1.26732 -0.0029,-0.008 1.132511,-0.97217 1.151621,-0.97849 z m 11.609709,0.15562 c 0.0059,0.001 0.249611,0.28413 0.541265,0.62964 0.291948,0.34558 0.529064,0.63153 0.533474,0.63712 0.0044,0.0123 -1.115458,0.95737 -1.128689,0.95178 -0.01176,-0.006 -1.065036,-1.25293 -1.069594,-1.26675 -0.0029,-0.0122 1.108844,-0.95443 1.123544,-0.95179 z m -9.052738,0.17026 c 0.0059,-0.002 0.239909,0.26882 0.521125,0.60179 0.28107,0.33297 0.512306,0.60959 0.509366,0.61385 -0.0029,0.0147 -1.142949,0.97138 -1.156179,0.96874 -0.01323,-0.002 -1.012557,-1.17834 -1.019907,-1.20159 0.0029,0 0.0029,0 0.0029,-0.003 l -0.0015,0 c 0.01176,-0.0232 0.152442,-0.14578 0.563904,-0.49355 0.313998,-0.26528 0.574635,-0.4858 0.580515,-0.4858 z m -6.63748,0.13121 c 0.0029,-0.001 0.03778,0.0353 0.07747,0.0807 0.05733,0.0672 0.06762,0.0857 0.06174,0.0991 -0.01323,0.0236 -0.09335,0.0902 -0.106577,0.0876 -0.01176,-0.002 -0.04292,-0.26436 -0.03263,-0.2673 z m 18.224844,0.0494 c 0.0044,0.003 0.242849,0.28094 0.528035,0.61874 0.301209,0.35675 0.518626,0.62016 0.514216,0.62648 -0.0029,0.007 -0.253139,0.22264 -0.557582,0.47948 -0.441156,0.37255 -0.55523,0.46469 -0.568461,0.45911 -0.01529,-0.008 -1.04034,-1.21553 -1.04475,-1.2323 -0.0044,-0.0123 1.118252,-0.95709 1.128542,-0.95151 z m -9.034951,0.0666 c 0.0074,0.004 0.256667,0.29564 0.554789,0.64859 0.297681,0.35294 0.542735,0.64607 0.539795,0.65033 0,0.005 -0.06542,0.0621 -0.143622,0.12776 -0.07821,0.0658 -0.343693,0.28976 -0.589776,0.49757 -0.412049,0.3477 -0.448065,0.37699 -0.462765,0.36406 -0.0088,-0.008 -0.256374,-0.29937 -0.550674,-0.6483 -0.489226,-0.58022 -0.533473,-0.63586 -0.524653,-0.65347 0.0059,-0.0104 0.270191,-0.23827 0.587277,-0.50619 0.406757,-0.34324 0.580809,-0.48461 0.589629,-0.48035 z m -8.887361,0.23888 c 0.0059,0.003 0.234029,0.2706 0.507896,0.59491 0.273719,0.32434 0.502162,0.59449 0.506572,0.59949 0.0029,0.005 0.0044,0.0159 0,0.0233 -0.0074,0.0141 -0.852176,0.72862 -0.865407,0.73244 -0.02029,0.006 -0.18831,-0.65384 -0.274748,-1.07727 -0.04939,-0.24375 -0.116133,-0.64637 -0.110252,-0.67041 0,-0.002 0,-0.004 0.0044,-0.007 l 0,0 c 0.02867,-0.0419 0.216976,-0.20317 0.23197,-0.19582 z m 11.501662,0.091 c 0.0073,0.004 0.256667,0.29551 0.554642,0.6486 0.322084,0.38154 0.541559,0.64772 0.537149,0.65434 -0.0059,0.0172 -1.167938,0.99634 -1.181169,0.99369 -0.0059,-0.001 -0.241232,-0.27563 -0.523918,-0.61069 -0.548028,-0.64901 -0.579486,-0.68518 -0.575076,-0.69195 0.0029,0 0.0029,0 0.0029,-0.003 0.0029,-0.005 0.267692,-0.23192 0.588894,-0.5036 0.405728,-0.34303 0.589629,-0.49178 0.596979,-0.48752 z m 8.647011,0.15131 c 0.01176,-0.004 0.116279,0.37438 0.19669,0.71692 0.07041,0.29933 0.18537,0.90041 0.18537,0.97591 0.0029,0.0132 0,0.0238 0,0.0264 -0.0088,0.0135 -0.225502,0.18634 -0.231382,0.18634 -0.01323,-0.002 -0.997122,-1.17142 -0.997122,-1.18407 l -0.0015,0 c 0.0015,-0.009 0.83336,-0.71668 0.848208,-0.72094 z m -17.70563,0.0721 c 0.0073,-0.002 0.424104,0.4861 1.031079,1.20789 0.02911,0.0335 0.04925,0.0655 0.04631,0.0706 -0.01029,0.0183 -1.090321,0.92374 -1.096201,0.91992 -0.01029,-0.005 -1.067389,-1.25743 -1.071799,-1.26905 -0.0029,-0.009 1.068565,-0.92204 1.090615,-0.92939 z m 11.633083,0.13178 c 0.01029,-0.004 0.148767,0.15412 0.551261,0.63109 0.295329,0.34986 0.535532,0.63986 0.531122,0.64486 -0.0029,0.005 -0.263136,0.22559 -0.577869,0.49038 -0.379415,0.31918 -0.577281,0.47932 -0.583161,0.47432 -0.0059,-0.004 -0.246083,-0.2858 -0.532886,-0.6262 -0.287097,-0.34047 -0.525536,-0.62319 -0.529946,-0.62878 -0.0044,-0.005 -0.0073,-0.0141 -0.0044,-0.0184 l 0,0 c 0.0074,-0.0137 1.1306,-0.96142 1.145301,-0.967 z m -9.063323,0.19869 c 0.0088,0.005 0.815866,0.95479 0.990212,1.16597 0.01911,0.0238 0.02793,0.0424 0.02352,0.0511 -0.01029,0.0183 -1.114135,0.94881 -1.137803,0.95954 -0.01749,0.008 -0.06086,-0.0415 -0.527447,-0.59491 -0.416018,-0.49359 -0.504661,-0.60489 -0.499222,-0.61816 0.01735,-0.0307 1.137509,-0.96913 1.15074,-0.96355 z m 11.596919,0.14873 c 0.0074,-0.002 0.999621,1.16366 1.040194,1.22253 0.0088,0.0107 0.01323,0.0246 0.0088,0.0296 -0.0059,0.0104 -1.084735,0.9219 -1.106786,0.93513 -0.0059,0.004 -0.01999,0.003 -0.02587,-0.004 -0.03998,-0.0361 -1.032108,-1.22155 -1.032108,-1.23316 l 0,0 c 0,-0.0116 1.095319,-0.9433 1.116634,-0.95007 z M 41.682,992.73482 c 0.0073,0.001 0.257696,0.2914 0.556994,0.646 0.306942,0.36328 0.543323,0.65032 0.540383,0.65664 -0.0029,0.006 -0.261959,0.22848 -0.57684,0.49327 -0.402641,0.33882 -0.576692,0.47846 -0.582572,0.47287 -0.01705,-0.0141 -1.087823,-1.28273 -1.092233,-1.29346 -0.0044,-0.0123 1.137509,-0.97797 1.154268,-0.97532 z m 11.606034,0.20816 c 0.0073,0.002 0.233734,0.26656 0.50422,0.58743 0.297975,0.35356 0.491872,0.58913 0.487462,0.59634 -0.0074,0.0237 -1.116635,0.9498 -1.126925,0.94259 -0.01617,-0.0106 -0.985802,-1.16163 -0.990212,-1.17545 -0.0044,-0.0156 1.108549,-0.95591 1.125455,-0.95091 z m -8.990998,0.12173 c 0.0059,0 0.256814,0.29143 0.556112,0.646 0.304444,0.36044 0.543618,0.65032 0.540678,0.65664 -0.0074,0.0215 -1.170585,0.99596 -1.183816,0.99169 -0.01808,-0.006 -1.094437,-1.28466 -1.094437,-1.29862 0.0029,-0.0156 1.166763,-0.99836 1.181463,-0.99571 z m -8.965713,0.15188 c 0.0074,-0.002 0.21536,0.23763 0.546263,0.62965 0.2943,0.34839 0.536708,0.63759 0.533768,0.64141 0,0.004 -0.251522,0.2191 -0.556994,0.4769 -0.3728,0.31454 -0.559935,0.46749 -0.570225,0.46455 -0.01176,-0.004 -0.64549,-0.74405 -0.693266,-0.8108 -0.02661,-0.0369 -0.212419,-0.58574 -0.203599,-0.60209 0.0088,-0.0173 0.924943,-0.79418 0.944053,-0.79962 z m 11.58075,0.1783 c 0.0059,0 0.251081,0.28503 0.544058,0.63194 0.384412,0.45496 0.531856,0.6346 0.525976,0.644 -0.0074,0.0143 -1.159559,0.98842 -1.17426,0.99342 -0.0059,0.002 -0.250346,-0.28197 -0.544646,-0.63051 -0.435864,-0.5163 -0.532151,-0.63595 -0.52627,-0.64859 0.01323,-0.0235 1.161911,-0.99026 1.175142,-0.99026 z m -9.072879,0.19553 c 0.0074,0.001 0.987125,1.15531 1.016085,1.19727 0.0029,0.009 0.0088,0.0186 0.0059,0.0215 -0.0044,0.008 0.03322,-0.0247 -0.563021,0.47834 -0.520685,0.43921 -0.525683,0.44271 -0.544646,0.42722 -0.04116,-0.0332 -1.01241,-1.19185 -1.00653,-1.20243 l 0,0 c 0.0044,-0.0157 1.077826,-0.92458 1.091056,-0.92193 z m 11.629408,0.12948 c 0.0059,-0.002 0.244172,0.27307 0.53171,0.61328 0.406463,0.48138 0.520684,0.62133 0.514804,0.63338 -0.0029,0.009 -0.259901,0.23018 -0.569931,0.49153 -0.394997,0.33294 -0.568901,0.47324 -0.579191,0.47059 -0.0147,-0.004 -1.040341,-1.21092 -1.046221,-1.23172 -0.0029,-0.009 1.125602,-0.96927 1.148829,-0.97706 z m -9.118302,0.13495 c 0.0029,0.002 0.25064,0.29283 0.549791,0.64715 0.299298,0.35437 0.542588,0.64774 0.546998,0.65406 0,0.005 -0.255785,0.22806 -0.572136,0.49499 -0.43851,0.36979 -0.578015,0.48321 -0.588306,0.47689 -0.02499,-0.0159 -1.096348,-1.2911 -1.091938,-1.29977 0.0073,-0.0145 1.14971,-0.97626 1.155591,-0.97332 z m 11.631906,0.19207 c 0.0074,0.002 0.235793,0.26634 0.507013,0.58716 0.356189,0.42171 0.491137,0.58665 0.485257,0.59606 -0.0088,0.0175 -1.09576,0.9337 -1.112812,0.93914 -0.01029,0.003 -0.146709,-0.15219 -0.508778,-0.58025 -0.271661,-0.32158 -0.493489,-0.58817 -0.497899,-0.59376 -0.0059,-0.0141 1.110167,-0.95261 1.127219,-0.94835 z m 2.746898,0.007 c 0.0044,-0.002 0.01705,0.049 0.0244,0.11399 0.0074,0.0649 0.01617,0.12903 0.01323,0.14182 0,0.0236 0,0.0237 -0.02528,-0.004 -0.05233,-0.0557 -0.126128,-0.15103 -0.126128,-0.15647 l 0,0 c 0.0044,-0.01 0.103196,-0.0918 0.113486,-0.0956 z m -11.800813,0.1605 c 0.0073,-0.002 0.05557,0.0485 0.119808,0.12432 0.05968,0.0705 0.306501,0.36298 0.548615,0.65002 0.242261,0.287 0.43851,0.52616 0.43557,0.53116 -0.0073,0.0131 -1.134863,0.96418 -1.148094,0.96844 -0.0088,0.003 -1.080472,-1.25452 -1.102081,-1.29287 l 0,-0.003 0,0 c 0.01323,-0.0228 0.163173,-0.15362 0.563315,-0.49153 0.313999,-0.26519 0.574635,-0.48638 0.581985,-0.48638 z m 11.51401,0.0916 c 0.0219,0.0112 0.349426,0.40936 0.358246,0.43469 0.01691,0.0515 0.03028,0.52888 0.02587,0.89264 -0.0044,0.19872 -0.0088,0.37098 -0.01691,0.38245 -0.01999,0.0362 -0.491284,0.42716 -0.504515,0.41775 -0.01632,-0.0123 -0.986978,-1.16485 -0.991388,-1.17632 l 0,0 c -0.0015,-0.005 0.244613,-0.21899 0.547733,-0.4746 0.303121,-0.25566 0.561405,-0.46685 0.561405,-0.47317 0.0044,-0.006 0.01323,-0.006 0.01896,-0.003 z m -8.886331,0.24605 c 0.0088,0.005 0.252404,0.2895 0.542147,0.63281 0.454239,0.53801 0.523478,0.62614 0.517597,0.64055 -0.01029,0.018 -1.154267,0.98382 -1.171319,0.9894 -0.01029,0.003 -1.069006,-1.24031 -1.077826,-1.26561 -0.0029,-0.006 0.241672,-0.21844 0.585366,-0.50846 0.478935,-0.40397 0.590805,-0.49545 0.604035,-0.48869 z m -8.994085,0.11772 c 0.0088,0.001 0.981098,1.1435 1.016967,1.19555 0.0059,0.009 0.01176,0.0197 0.0088,0.0227 -0.0015,0.003 -0.223885,0.19097 -0.492901,0.41748 -0.268868,0.22653 -0.520096,0.43806 -0.55817,0.46999 -0.03807,0.0321 -0.07203,0.0569 -0.07644,0.0543 -0.01323,-0.007 -1.013291,-1.19437 -1.017702,-1.20819 l 0,0 c -0.0044,-0.0144 1.101641,-0.95473 1.120604,-0.95208 z m 11.574428,0.17629 c 0.0088,-0.003 1.023288,1.18871 1.048279,1.2303 0.0029,0.006 0.0044,0.0165 0,0.0215 -0.0029,0.005 -0.268722,0.23069 -0.59007,0.50102 -0.478936,0.40317 -0.587718,0.49 -0.598008,0.48207 -0.01764,-0.0119 -1.035489,-1.21762 -1.0399,-1.23202 l 0,0 c -0.0029,-0.01 1.156179,-0.99584 1.17867,-1.0029 z m -9.116832,0.14672 c 0.01029,0.004 0.259902,0.29417 0.555966,0.64543 0.344428,0.4087 0.537884,0.64397 0.533474,0.65205 -0.0059,0.0155 -1.051219,0.90009 -1.07959,0.91302 -0.01705,0.008 -0.06204,-0.0428 -0.565374,-0.6394 -0.381767,-0.45248 -0.544793,-0.65198 -0.540383,-0.66094 0.0029,-0.007 0.247994,-0.21619 0.542735,-0.46484 0.436158,-0.36779 0.538325,-0.45032 0.553172,-0.44532 z m 11.648077,0.15361 c 0.01176,-0.005 0.110399,0.10635 0.510395,0.58026 0.392498,0.4648 0.494665,0.59059 0.488785,0.60323 -0.0029,0.009 -0.260196,0.2317 -0.570519,0.49412 -0.435129,0.36765 -0.568902,0.47633 -0.579192,0.47001 -0.01823,-0.009 -0.980804,-1.14639 -0.989624,-1.16913 l 0,-0.003 0,0 c 0.0074,-0.0218 0.118043,-0.11847 0.558758,-0.49126 0.311059,-0.263 0.572283,-0.48114 0.581103,-0.48408 z m -15.79312,0.15935 c 0.0059,0.003 0.198601,0.23047 0.217711,0.2584 0.0074,0.0132 0.0147,0.0286 0.01029,0.0336 -0.01029,0.0184 -0.07188,0.0614 -0.0807,0.0571 -0.01176,-0.006 -0.160233,-0.33486 -0.155823,-0.34397 l 0,-0.001 c 0.0029,-0.004 0.0088,-0.004 0.0088,-0.004 z m 6.721124,0.0347 c 0.0059,-0.002 0.256226,0.28884 0.557582,0.64573 0.30121,0.35695 0.548469,0.65438 0.545529,0.65865 -0.0029,0.0109 -1.131924,0.96384 -1.148829,0.97016 -0.01176,0.004 -1.111784,-1.29248 -1.105903,-1.3038 0.0059,-0.0103 1.141331,-0.96691 1.151621,-0.97074 z m 11.531944,0.0655 c 0.0059,-0.002 0.233735,0.26073 0.505985,0.58343 0.272249,0.32267 0.493342,0.59032 0.497752,0.59576 0.0044,0.0123 -1.118252,0.9584 -1.128542,0.95208 -0.0044,-0.003 -0.230354,-0.26716 -0.501133,-0.58773 -0.333403,-0.39544 -0.491578,-0.58866 -0.487168,-0.59778 0.0044,-0.0147 1.092085,-0.93943 1.113106,-0.94576 z m -8.945573,0.28741 c 0.0044,-0.001 0.248141,0.28291 0.542882,0.63136 0.459237,0.54331 0.532445,0.63592 0.526565,0.65033 -0.01323,0.0243 -1.133835,0.96471 -1.147065,0.96471 -0.0059,-0.001 -0.250787,-0.28598 -0.544058,-0.6331 -0.491578,-0.58225 -0.53024,-0.62767 -0.51995,-0.64658 l 0,0 c 0,0 0.0029,-0.003 0.0029,-0.003 0.01632,-0.0201 1.125455,-0.95944 1.138685,-0.96326 z m -8.932785,0.0815 c 0.0088,-0.003 0.01499,0 0.0244,0.008 0.01176,0.009 0.243878,0.28068 0.516275,0.60352 0.279011,0.33058 0.49393,0.5926 0.49099,0.59892 -0.0044,0.0109 -0.350162,0.30464 -0.365009,0.31096 -0.0074,0.002 -0.150825,-0.23112 -0.301944,-0.49098 -0.116867,-0.20086 -0.283863,-0.50922 -0.409256,-0.75655 -0.05851,-0.11329 -0.07909,-0.15178 -0.06424,-0.18203 0.0088,-0.0187 0.03028,-0.0343 0.06483,-0.0623 0.0222,-0.0177 0.03484,-0.027 0.04395,-0.0299 z m 11.532239,0.2274 c 0.0073,0.004 0.245201,0.28175 0.528623,0.61758 0.337078,0.39949 0.514657,0.61595 0.510247,0.62419 -0.0044,0.0132 -1.158384,0.98911 -1.175436,0.99543 -0.0088,0.003 -1.040634,-1.21173 -1.049454,-1.23603 -0.0074,-0.0207 1.166909,-1.01175 1.18602,-1.00117 z m -9.046712,0.0574 c 0.0044,-0.002 0.255785,0.28874 0.556995,0.64573 0.301062,0.35699 0.548468,0.6526 0.545528,0.65892 0,0.005 -0.251963,0.22063 -0.557583,0.47834 -0.522889,0.44077 -0.555965,0.46813 -0.575075,0.45651 -0.02631,-0.0164 -1.087529,-1.27692 -1.087529,-1.2903 0.0015,-0.01 1.100612,-0.94288 1.117664,-0.9492 z m 11.609562,0.21476 c 0.01029,0.003 0.907744,1.05476 0.979628,1.14903 0.0074,0.0115 0.0147,0.0277 0.01029,0.0345 -0.0088,0.0242 -1.172643,0.99674 -1.182933,0.98998 -0.0059,-0.004 -0.233294,-0.2699 -0.504955,-0.59175 -0.449682,-0.53224 -0.494224,-0.58713 -0.480994,-0.60007 l 0,0 c 0.0074,-0.008 0.27225,-0.23324 0.588894,-0.50014 0.376328,-0.31768 0.580662,-0.48386 0.589482,-0.48122 z m 5.444256,0.0715 c 0.0044,0.0134 -0.01838,0.24156 -0.04131,0.42349 -0.01793,0.16357 -0.01793,0.15861 -0.02822,0.15303 -0.01029,-0.005 -0.250787,-0.28972 -0.255197,-0.30118 l -0.0029,0 c -0.0015,-0.005 0.07085,-0.071 0.160527,-0.14701 0.08982,-0.076 0.162144,-0.13437 0.166554,-0.12805 z m -14.521103,0.1246 c 0.0074,0.002 0.256226,0.29217 0.554348,0.64515 0.441744,0.52305 0.541118,0.64555 0.535238,0.65893 -0.0059,0.0154 -1.064596,0.91331 -1.083559,0.91963 -0.01176,0.004 -1.106933,-1.2968 -1.101052,-1.30753 0.01176,-0.0223 1.084735,-0.91912 1.095025,-0.91618 z m 11.559287,0.037 c 0.0044,0 0.230501,0.26069 0.500104,0.58026 0.269751,0.31961 0.494518,0.58427 0.498928,0.59059 0.0015,0.004 0.0073,0.0147 0.0044,0.0147 -0.0015,0.003 -0.26093,0.22293 -0.575957,0.48897 -0.411609,0.34766 -0.578751,0.4835 -0.586101,0.47718 -0.01573,-0.008 -0.988302,-1.15682 -0.992712,-1.17401 l 0,0 c -0.0029,-0.0115 1.131482,-0.97791 1.150593,-0.97791 z m 2.454215,0.26185 c 0.0059,-0.002 0.09761,0.1013 0.20551,0.22884 l 0.195514,0.23198 -0.01323,0.0735 c -0.03631,0.20563 -0.09717,0.46853 -0.122895,0.53605 -0.0147,0.042 -0.03396,0.11609 -0.04278,0.16538 -0.0074,0.0492 -0.03602,0.16595 -0.06409,0.25925 -0.02793,0.0933 -0.05601,0.18198 -0.06483,0.19668 -0.01867,0.0349 -0.325759,0.29544 -0.342811,0.28912 -0.02205,-0.007 -0.872169,-1.0208 -0.866289,-1.03418 l 0,0 c 0.0044,-0.0132 1.096054,-0.94058 1.115165,-0.9469 z m -11.424632,0.0586 c 0.0074,0.004 0.248141,0.28476 0.53465,0.62447 0.28695,0.33978 0.525241,0.6213 0.529651,0.62763 0.0029,0.005 0.0044,0.0162 0,0.023 -0.01029,0.0169 -1.129718,0.95781 -1.144712,0.96414 -0.0088,0.003 -1.076503,-1.24707 -1.082383,-1.26877 l 0,0 c 0,-0.003 0.256667,-0.22417 0.573018,-0.49155 0.422927,-0.3572 0.578898,-0.48418 0.589188,-0.47919 z m 2.56138,0.32845 c 0.0029,0 0.0059,0.002 0.0088,0.004 0.01029,0.009 0.247406,0.28682 0.527153,0.61846 0.313116,0.3715 0.508483,0.60835 0.504073,0.61615 -0.0029,0.0104 -0.504955,0.43762 -1.067242,0.90928 -0.06777,0.0588 -0.08056,0.0641 -0.09379,0.0525 -0.02102,-0.0168 -1.032991,-1.2146 -1.037401,-1.22856 -0.0015,-0.006 0.245789,-0.22176 0.572283,-0.49728 0.494224,-0.41749 0.564198,-0.47604 0.586836,-0.47432 z m -8.981883,0.006 c 0.0073,0.001 0.342517,0.39452 1.054305,1.23862 0.03278,0.0394 0.04469,0.0611 0.04028,0.0706 -0.0044,0.007 -0.111575,0.1 -0.238145,0.20558 -0.177726,0.14791 -0.232265,0.18937 -0.242555,0.18261 -0.0074,-0.005 -0.06483,-0.0742 -0.128921,-0.15333 -0.367508,-0.45524 -0.88981,-1.18696 -0.872757,-1.22024 0.01176,-0.0211 0.377503,-0.32386 0.387794,-0.32386 z m 11.543263,0.26184 c 0.01029,0.003 0.948758,1.10548 0.985067,1.15794 0.0074,0.0103 0.01176,0.0224 0.0074,0.0287 -0.0074,0.0128 -1.159266,0.9848 -1.174113,0.99112 -0.01029,0.004 -1.013292,-1.17564 -1.005942,-1.18607 0.01029,-0.0212 1.1772,-0.9917 1.18749,-0.9917 z m -8.988792,0.12289 c 0.0073,0.001 0.258284,0.29101 0.556994,0.64486 0.343105,0.40604 0.543323,0.6487 0.538913,0.65663 -0.0029,0.007 -0.254021,0.22318 -0.55817,0.48006 -0.377651,0.31866 -0.558465,0.46685 -0.565815,0.46053 -0.0147,-0.007 -1.087087,-1.27538 -1.094437,-1.29258 -0.0059,-0.0137 1.103404,-0.9495 1.122515,-0.9495 z m 11.496075,0.089 c 0.01029,-0.004 0.137007,0.13967 0.512012,0.58371 0.366772,0.43463 0.4954,0.5928 0.48952,0.60236 -0.0073,0.0131 -1.145888,0.97686 -1.170879,0.99083 -0.0088,0.005 -0.135537,-0.13917 -0.506719,-0.57881 -0.271662,-0.32213 -0.495253,-0.59044 -0.498194,-0.5975 -0.0044,-0.0119 1.144713,-0.99015 1.17426,-1.00059 z m 2.489643,0.23572 c 0.0088,-0.003 0.729135,0.83719 0.8682,1.0118 0.0059,0.0103 0.0088,0.0212 0.0088,0.0276 -0.0074,0.0123 -1.135892,0.96212 -1.149122,0.96844 -0.0088,0.003 -0.871434,-1.00904 -0.877314,-1.03074 l 0,0 c -0.0029,-0.01 1.126043,-0.96912 1.148681,-0.97706 z m -11.455062,0.0772 c 0.0044,0.003 0.248289,0.28808 0.540384,0.63452 0.292388,0.34641 0.532297,0.63309 0.529357,0.63941 0,0.005 -0.246965,0.21586 -0.546557,0.468 -0.385883,0.32485 -0.546263,0.45595 -0.555083,0.44965 -0.0059,-0 -0.249464,-0.29149 -0.541706,-0.63714 -0.442185,-0.5236 -0.532592,-0.63129 -0.519362,-0.64085 0.03675,-0.0409 1.087087,-0.91991 1.092967,-0.91359 z m 2.554472,0.32271 c 0.0029,-0.001 0.242702,0.27788 0.532003,0.62017 0.289008,0.34226 0.52289,0.62476 0.51995,0.63108 -0.01323,0.0219 -1.149122,0.97392 -1.157943,0.96762 -0.02323,-0.012 -1.047102,-1.23686 -1.042692,-1.24641 0.0059,-0.011 1.135451,-0.96613 1.148682,-0.97246 z m 2.533008,0.30205 c 0.0059,-0.001 0.01029,0.001 0.0147,0.004 0.0074,0.005 0.233587,0.27041 0.50275,0.58888 0.421457,0.49809 0.489226,0.58106 0.480406,0.59576 -0.01323,0.0239 -1.134422,0.96441 -1.147653,0.96441 -0.01588,-0 -0.993887,-1.165 -0.994916,-1.1809 0.0029,-0.0103 1.000796,-0.8622 1.127219,-0.96183 0.0059,-0.006 0.01176,-0.01 0.01764,-0.0103 z m -8.923964,0.0669 c 0.0029,-0.001 0.253727,0.29049 0.555378,0.64802 0.409403,0.48468 0.546998,0.65281 0.541118,0.66324 -0.01029,0.0172 -0.369272,0.31867 -0.386324,0.32527 -0.02234,0.01 -0.463648,-0.4283 -0.776764,-0.76542 -0.164497,-0.17727 -0.402935,-0.44714 -0.407345,-0.46111 -0.0029,-0.009 0.452622,-0.40368 0.473937,-0.41 z m 11.436393,0.147 c 0.0059,-0.002 0.01176,-0.002 0.0147,0.001 0.0059,0.003 0.232265,0.267 0.502162,0.58628 0.269604,0.31921 0.488344,0.58226 0.492754,0.58858 0.0029,0.008 -1.161912,0.996 -1.181022,1.0023 -0.0074,0 -1.001825,-1.16207 -1.007705,-1.18117 0,-0.004 1.086352,-0.92637 1.162499,-0.98652 0.0044,-0.005 0.01029,-0.009 0.01661,-0.0106 z m 5.085127,0.12461 c 0.0029,0 0.01176,0.009 0.0059,0.0184 -0.0044,0.0129 -0.0088,0.0192 -0.0169,0.0129 -0.0088,-0.004 -0.0059,-0.0115 -0.0059,-0.0178 l 0,0 c 0.0029,-0.007 0.01029,-0.0132 0.01691,-0.0132 z m -2.564173,0.0859 c 0.0059,-0.002 0.205804,0.22795 0.445566,0.51193 0.239321,0.28354 0.43557,0.51884 0.43263,0.52514 -0.0029,0.011 -1.161177,0.9877 -1.178229,0.994 -0.01029,0 -0.869817,-1.0038 -0.878637,-1.02933 -0.0029,-0.01 1.155885,-0.99497 1.17867,-1.00174 z m -11.39729,0.0304 c 0.0074,0.002 0.250053,0.28509 0.54053,0.62937 0.290625,0.34417 0.527006,0.62907 0.531563,0.63537 0.0029,0.012 -1.116781,0.9596 -1.127072,0.9532 -0.01029,-0.01 -1.0668,-1.25668 -1.071211,-1.26874 -0.0044,-0.0135 1.111343,-0.95552 1.12619,-0.9492 z m 13.762568,0.0563 c 0.0059,0 0.02822,0.0255 0.05101,0.0543 l 0.04219,0.0531 -0.01691,0.0485 c -0.02955,0.0834 -0.351337,0.71408 -0.430425,0.84785 -0.06718,0.1134 -0.241085,0.3852 -0.310029,0.4855 -0.01323,0.021 -0.02602,0.034 -0.0319,0.034 -0.0088,-0 -0.456738,-0.536 -0.459678,-0.5456 l 0,-0 c -0.0029,-0.011 1.14383,-0.97738 1.15706,-0.97738 z M 42.74689,999.4002 c 0.0044,0.002 0.241231,0.28069 0.527446,0.6196 0.451005,0.5339 0.518333,0.6181 0.510983,0.6328 -0.0059,0.01 -0.249611,0.2192 -0.543176,0.4668 -0.401172,0.3386 -0.537443,0.4497 -0.547734,0.4433 -0.01323,-0.01 -1.040487,-1.2168 -1.046367,-1.2334 -0.0029,-0.011 1.088557,-0.93542 1.098848,-0.9291 z m 2.522865,0.30003 c 0.01029,-0.006 0.117308,0.11502 0.505102,0.57457 0.27078,0.3204 0.495988,0.5859 0.500399,0.5923 0.0029,0 0.0059,0.013 0.0029,0.019 -0.0074,0.012 -1.136628,0.9627 -1.149858,0.969 -0.0088,0 -0.996092,-1.1584 -1.001972,-1.1795 -0.0029,-0.01 1.101493,-0.9505 1.143536,-0.97557 z m 2.490966,0.23458 c 0.01029,-0.003 -0.0044,-0.0203 0.528329,0.61069 0.410285,0.4853 0.477171,0.5672 0.468351,0.5811 -0.0044,0.01 -0.263429,0.2305 -0.573459,0.4918 -0.465705,0.3921 -0.566402,0.4734 -0.579632,0.4663 -0.02308,-0.013 -0.990507,-1.1615 -0.990507,-1.1749 0,-0.01 1.129865,-0.96867 1.146918,-0.97499 z m -8.83047,0.19469 c 0.01323,-0 0.257402,0.2787 1.037106,1.2056 0.02719,0.034 0.05116,0.067 0.04822,0.067 -0.0059,0.01 -0.114663,0.094 -0.124953,0.1005 -0.02043,0.01 -0.487462,-0.3445 -0.802489,-0.6036 -0.196837,-0.1617 -0.516128,-0.4408 -0.520538,-0.4547 -0.0029,-0.01 0.335167,-0.304 0.362657,-0.3144 z m 11.347602,0.015 c 0.0059,-0 0.20551,0.2292 0.444831,0.5128 0.239174,0.2834 0.43557,0.5182 0.43263,0.5245 -0.0015,0.01 -1.168527,0.9949 -1.181757,1.0012 -0.0059,0 -0.860556,-1.0088 -0.870846,-1.0305 l 0,-0 c 0.0074,-0.021 0.122307,-0.1215 0.579192,-0.507 0.322378,-0.2722 0.59007,-0.4979 0.59595,-0.4979 z m 2.391739,0.067 c 0.0044,-0 0.121718,0.1308 0.259607,0.2943 0.138036,0.1635 0.249905,0.2991 0.245495,0.3055 -0.0015,0.01 -0.01485,0.013 -0.01926,0.023 -0.0074,0.01 -0.06056,0.076 -0.11922,0.1502 -0.220357,0.2788 -0.521419,0.6028 -0.778674,0.8381 -0.06777,0.062 -0.12804,0.1148 -0.13686,0.1211 -0.01617,0.01 0.01911,0.049 -0.353248,-0.3919 -0.173023,-0.2048 -0.279453,-0.3372 -0.275043,-0.3442 l 0.0015,0 c 0.0059,-0.012 1.160883,-0.99 1.17573,-0.9963 z m 2.192697,0.2144 c 0.0029,0 0.02675,0.099 0.05145,0.2165 0.439539,2.0819 1.211011,4.5663 2.185787,7.0401 0.07938,0.2015 0.142593,0.3692 0.142593,0.3692 -0.254315,-0.1532 -0.519067,-0.3178 -0.77941,-0.4717 -0.693119,-0.4094 -1.265548,-0.7204 -2.187551,-1.1887 -0.732075,-0.3717 -0.904804,-0.4558 -1.437837,-0.7011 -0.792934,-0.3649 -1.610564,-0.712 -2.419228,-1.0264 -0.165525,-0.064 -0.309588,-0.1228 -0.318408,-0.1295 -0.0015,-0 -0.0059,-0.01 -0.0059,-0.01 l 0,-0.01 0,0 c 0.0059,-0.01 0.03102,-0.017 0.0907,-0.039 0.269751,-0.098 0.633583,-0.2557 0.904216,-0.392 1.415492,-0.7115 2.603129,-1.7905 3.451924,-3.1353 0.08644,-0.1376 0.257255,-0.4259 0.294594,-0.4987 0.01029,-0.019 0.01999,-0.032 0.02587,-0.032 z m -13.397707,0.052 c 0.0044,-0 0.244907,0.2761 0.532592,0.617 0.376181,0.4457 0.522155,0.6234 0.516275,0.6325 -0.0044,0.01 -0.2183,0.1908 -0.47629,0.4083 l -0.469234,0.3954 -0.08894,-0.043 c -0.04925,-0.024 -0.173464,-0.091 -0.276219,-0.1484 l -0.186547,-0.1051 -0.335461,-0.3985 c -0.188164,-0.2234 -0.336049,-0.4043 -0.331932,-0.4109 0.0029,-0.013 1.096642,-0.9406 1.115752,-0.9469 z m 2.477883,0.3457 c 0.0044,-0 0.232706,0.2633 0.507013,0.588 0.27372,0.3247 0.498193,0.5935 0.495253,0.5998 0,0.01 -0.246377,0.215 -0.544646,0.4663 -0.381326,0.3214 -0.546116,0.4565 -0.554936,0.4502 -0.01485,-0.01 -0.988742,-1.1587 -0.993152,-1.1746 -0.0029,-0.01 1.069005,-0.9234 1.090468,-0.9297 z m 2.488614,0.238 c 0.0044,0 0.231382,0.2653 0.503926,0.588 0.272397,0.3227 0.494812,0.5924 0.491872,0.5987 -0.0044,0.013 -1.130306,0.9644 -1.147358,0.9707 -0.0088,0 -0.997857,-1.1584 -1.003737,-1.1795 -0.0029,-0.01 1.142066,-0.9779 1.155297,-0.9779 z m 2.492583,0.2426 c 0.298269,0.3675 0.574046,0.6269 0.868199,1.0322 -0.0015,0.01 -1.036812,0.8868 -1.115752,0.9469 -0.0197,0.015 -0.03837,0.023 -0.04425,0.023 -0.01176,-0.01 -0.863202,-1.0134 -0.867612,-1.0267 -0.0074,-0.017 1.14236,-0.9845 1.159413,-0.9754 z m 2.389533,0.064 c 0.0074,0 0.149208,0.1678 0.315616,0.365 0.168171,0.1995 0.300621,0.3643 0.297681,0.3706 -0.0029,0.01 -0.0147,0.019 -0.0247,0.028 -0.324435,0.2543 -0.503485,0.3816 -0.768825,0.5461 -0.172876,0.1073 -0.468205,0.2742 -0.494665,0.2805 -0.01176,0 -0.07144,-0.063 -0.234029,-0.2553 -0.28989,-0.344 -0.281217,-0.3332 -0.276807,-0.3439 0.0029,-0.01 0.267693,-0.232 0.588894,-0.5036 0.407933,-0.3452 0.588012,-0.4939 0.596832,-0.4876 z m -11.146355,0.2105 c 0.0044,0 0.05586,0.06 0.11378,0.1289 0.114075,0.1348 0.133038,0.1651 0.08232,0.1286 -0.01735,-0.012 -0.08526,-0.058 -0.151266,-0.1016 -0.06571,-0.043 -0.119073,-0.083 -0.123483,-0.09 l 0.0029,-0.01 -0.0015,0 c 0.01029,-0.019 0.06659,-0.066 0.07688,-0.059 z m 2.496552,0.3256 c 0.01029,-0 0.13539,0.1382 0.51157,0.584 0.368096,0.4361 0.4954,0.5928 0.48952,0.6024 -0.01176,0.021 -0.233441,0.2027 -0.252698,0.209 -0.03131,0.01 -0.570813,-0.1907 -0.909507,-0.3316 -0.230648,-0.096 -0.71958,-0.3193 -0.71517,-0.3271 0.0059,-0.011 0.863055,-0.7304 0.876285,-0.7367 z m 2.428048,0.2828 c 0.0074,-0 0.978305,1.1387 1.00065,1.1752 0.0044,0 0.0074,0.017 0.0044,0.017 -0.0088,0.014 -0.471292,0.3981 -0.488344,0.4063 -0.04998,0.023 -1.116488,-0.1605 -1.209394,-0.2085 -0.02087,-0.011 -0.387941,-0.4377 -0.396761,-0.4602 l 0,0 c -0.0029,-0.01 1.069006,-0.9218 1.090468,-0.9297 z m 2.495376,0.2375 c 0.0029,0 0.200659,0.2331 0.437775,0.5139 0.333991,0.3952 0.431454,0.5151 0.425574,0.5271 -0.0029,0.01 -0.08364,0.081 -0.177727,0.1605 l -0.171699,0.1442 -0.190663,0.024 c -0.380885,0.048 -1.051072,0.087 -1.095319,0.064 -0.02087,-0.011 -0.376034,-0.4388 -0.378974,-0.4548 l 0,0 c 0,-0.01 0.174492,-0.1636 0.533768,-0.4671 0.647107,-0.5465 0.608445,-0.5177 0.617265,-0.5114 z m 2.358075,0.094 c 0.0074,0 0.113046,0.121 0.236528,0.267 0.123189,0.1461 0.225062,0.27 0.228002,0.2771 0.0059,0.018 -0.247259,0.1317 -0.573312,0.2584 -0.282393,0.1097 -0.918034,0.3032 -0.946699,0.2885 -0.02176,-0.011 -0.09937,-0.1156 -0.09496,-0.126 0.01323,-0.023 1.137215,-0.965 1.150445,-0.965 z m -6.123263,0.7448 c 0.0044,0 0.0466,0.045 0.09379,0.1013 0.04675,0.056 0.08703,0.104 0.08409,0.1103 0,0.01 -0.316497,-0.079 -0.320907,-0.09 -0.0015,-0.01 0.129803,-0.1217 0.143033,-0.1217 z m 2.432606,0.2931 c 0.0059,0 0.06321,0.069 0.127011,0.1447 0.06409,0.076 0.116426,0.1427 0.120836,0.149 0.0074,0.017 -0.543029,-0.01 -0.564785,-0.027 0,0 0,-0.01 0.0029,-0.01 l -0.0015,0 c 0.02411,-0.038 0.300768,-0.271 0.315762,-0.2618 z m 2.351019,0.085 c 0.0059,0 0.01676,0.01 0.02117,0.013 0.0074,0.012 0.0029,0.015 -0.02896,0.025 -0.02102,0.01 -0.04028,0.01 -0.04028,0.01 0,-0.01 0.0029,-0.01 0.0029,-0.01 l -0.0015,0 c 0.0044,-0.012 0.03396,-0.038 0.04719,-0.038 z" fill="#ffffff"/><path style="color:#ffffff;font-style:normal;font-variant:normal;font-weight:normal;font-stretch:normal;font-size:medium;line-height:normal;font-family:sans-serif;text-indent:0;text-align:start;text-decoration:none;text-decoration-line:none;text-decoration-style:solid;text-decoration-color:#ffffff;letter-spacing:normal;word-spacing:normal;text-transform:none;direction:ltr;block-progression:tb;writing-mode:lr-tb;baseline-shift:baseline;text-anchor:start;white-space:normal;clip-rule:nonzero;display:inline;overflow:visible;visibility:visible;opacity:1;isolation:auto;mix-blend-mode:normal;color-interpolation:sRGB;color-interpolation-filters:linearRGB;solid-color:#ffffff;solid-opacity:1;fill:#ffffff;fill-opacity:1;fill-rule:evenodd;stroke:none;stroke-width:16;stroke-linecap:butt;stroke-linejoin:miter;stroke-miterlimit:4;stroke-dasharray:none;stroke-dashoffset:0;stroke-opacity:1;color-rendering:auto;image-rendering:auto;shape-rendering:auto;text-rendering:auto;enable-background:accumulate" d="m 60.574531,971.96998 c -0.572429,0.48201 -1.263343,0.87557 -1.766241,1.2926 -0.423662,0.35613 -0.763239,0.78085 -0.962869,1.42152 -0.01029,-0.005 -0.02146,-0.0104 -0.03308,-0.0159 -0.524507,-0.23695 -1.166469,-0.44463 -1.660693,-0.22297 -0.528917,0.2372 -0.834242,0.90534 -1.031667,1.50292 -1.306122,-0.19048 -2.369541,0.0978 -3.420613,0.36501 2.42114,2.18948 4.813466,4.35667 6.766695,6.12333 l 0.249023,0.50898 c 0.06454,0.21459 0.152589,0.45094 0.219182,0.6414 0,0.003 0,0 0,0.003 0.24917,0.49946 0.734133,0.83461 1.274369,0.88104 0.545234,0.0468 1.064302,-0.20723 1.361983,-0.66622 0.294888,-0.45518 0.345016,-1.0522 0.08673,-1.54684 -0.107753,-0.20703 -0.25799,-0.40452 -0.372505,-0.5692 l -0.289008,-0.59118 c -0.08879,-3.04383 -0.270927,-6.08469 -0.422487,-9.12686 z m -1.640259,11.61708 c -0.226532,-0.45423 0,0.003 0,0.003 0,-1.3e-4 0,-0.003 0,-0.003 0,0 0,0 0,0 z m -1.825189,-2.69761 0.79705,-0.38988 1.063567,1.42776 -0.463207,0.22661 z m 1.013291,-0.49574 0.633142,-0.30963 0.768973,1.57193 -0.338401,0.1655 z m 0.845709,-0.41365 0.736926,-0.36048 0.375886,1.76421 -0.34384,0.1682 z m 0.95596,-0.46771 0.767209,-0.37532 0.06674,1.91555 -0.457767,0.22397 z m -1.244968,2.82077 2.145508,-1.04957 0.152002,0.31072 -2.145509,1.0496 z"/></g><text x="0" y="115" fill="#ffffff" font-size="5px" font-weight="bold" font-family="'Helvetica Neue', Helvetica, Arial-Unicode, Arial, Sans-serif">Created by anbileru adaleru</text><text x="0" y="120" fill="#ffffff" font-size="5px" font-weight="bold" font-family="'Helvetica Neue', Helvetica, Arial-Unicode, Arial, Sans-serif">from the Noun Project</text></svg>
