<svg xmlns="http://www.w3.org/2000/svg" xmlns:xlink="http://www.w3.org/1999/xlink" version="1.1" x="0px" y="0px" viewBox="0 0 90 112.5" enable-background="new 0 0 90 90" xml:space="preserve"><g><path fill="#000000" d="M74.256,22.474L73.228,21.4c-0.147-0.154-0.378-0.197-0.571-0.105l-1.71,0.81   c-0.272-0.421-0.64-0.788-1.058-0.784c-0.174,0.003-0.496,0.075-0.693,0.514c-0.205,0.456-1.6,1.838-2.559,2.708l-9.896,4.53   c-0.347,0.084-7.912,1.942-10.82,3.294c-0.041-0.013-0.083-0.027-0.125-0.029l-0.475-1.28c0.643-0.45,1.186-1.063,1.559-1.849   c0.6-1.26,0.725-2.759,0.354-4.222c-0.658-2.597-2.787-4.482-5.061-4.482c-0.341,0-0.682,0.043-1.012,0.126   c-2.575,0.652-4.04,3.668-3.266,6.723c0.325,1.283,1.011,2.39,1.894,3.184c-0.027,0.059-0.043,0.123-0.044,0.191l-0.039,2.291   c-1.065,0.007-3.334,0.39-4.499,3.33l-6.767,3.453l-6.715-7.861l-0.651-0.88l-1.533-1.845l0.943-3.057l3.601-9.028   c0.186,0.037,0.373,0.062,0.562,0.062c1.844,0,3.484-1.689,4.389-4.519c1.213-3.803-0.01-6.069-1.761-6.629   c-0.29-0.092-0.589-0.139-0.889-0.139c-1.845,0-3.485,1.69-4.389,4.521c-0.524,1.64-0.632,3.13-0.31,4.308   c0.252,0.924,0.771,1.62,1.473,2.037l-3.292,8.254c-0.047,0.043-0.087,0.094-0.115,0.155l-1.417,3.026   c-0.009,0.001-0.019-0.003-0.027,0c-0.191,0.058-0.329,0.224-0.349,0.423l-0.03,0.287c-0.059-0.022-0.116-0.045-0.181-0.043   c-0.176,0.003-0.337,0.1-0.423,0.253l-1.654,2.94c-0.082,0.145-0.085,0.322-0.009,0.47c0.076,0.148,0.222,0.249,0.388,0.267   l0.127,0.014l-0.2,0.425c-0.022,0.048-0.037,0.1-0.043,0.153c-0.066,0.56,0.151,0.838,0.344,0.973   c0.159,0.112,0.336,0.15,0.504,0.15c0.308,0,0.584-0.127,0.658-0.165c0.115-0.058,0.202-0.157,0.245-0.278l0.171-0.488l1.902,0.782   l7.109,11.535c0.093,0.15,0.254,0.236,0.422,0.236c0.059,0,0.118-0.01,0.175-0.033l9.043-3.416l4.109,11.662   c-0.438,0.188-1.844,0.957-2.704,3.453c-0.782,2.273-1.648,2.555-1.641,2.555h0c-0.025,0.004-0.046,0.02-0.069,0.027   c-0.172,0.002-0.23,0.061-0.312,0.139c-0.125,0.123-0.198,0.375-0.159,0.543c0.124,0.539,1.314,1.111,1.739,1.299l-1.763,2.846   l-14.694-0.713l-1.544-0.053c-0.234-0.025-0.431,0.139-0.494,0.357l-0.734,2.541l-2.089,5.369c-0.087,0.225,0,0.48,0.208,0.604   l3.223,1.93c0.078,0.047,0.167,0.07,0.255,0.07c0.071,0,0.143-0.016,0.209-0.045c0.149-0.07,0.254-0.209,0.28-0.371l0.415-2.584   c0.005-0.004,0.016-0.016,0.017-0.018c0.005-0.004,0.007-0.012,0.012-0.018l2.652-3.326c0.235,0.031,0.592,0.082,1.044,0.146   c5.943,0.844,10.136,1.35,12.932,1.547l-10.531,2.6l-1.522,0.26c-0.224,0.037-0.394,0.223-0.411,0.449L24.733,76.6l-0.955,5.682   c-0.04,0.238,0.098,0.471,0.326,0.551l3.546,1.234c0.053,0.02,0.108,0.027,0.163,0.027c0.105,0,0.209-0.033,0.296-0.098   c0.132-0.098,0.207-0.256,0.199-0.42l-0.117-2.611c0.004-0.008,0.012-0.02,0.014-0.021c0.005-0.01,0.005-0.02,0.01-0.027   l1.922-3.795c2.118-0.225,15.835-1.725,17.12-3.086c1.35-1.426,2.68-2.969,2.812-4.771l-0.039-0.002   c0.04-0.215,0.073-0.535,0.111-0.998c0.026-0.008,0.053-0.006,0.077-0.018c0.14-0.064,0.514-0.277,0.676-0.625   c0.049-0.078,0.081-0.168,0.079-0.264l-0.001-0.057c0-0.006,0.004-0.01,0.004-0.018c0-0.01-0.004-0.021-0.005-0.033l-0.206-10.504   c-0.001-0.039-0.016-0.074-0.024-0.111l0.666-16.425c0.052-0.059,0.093-0.128,0.11-0.212c0.26-0.6,3.9-3.83,7.211-6.564   l10.131-6.123c0.502-0.224,4.922-2.247,5.516-4.36C74.422,22.783,74.377,22.601,74.256,22.474z M46.78,66.334   c0.108-0.119,0.2-0.25,0.259-0.4l2.848-3.4l0.075,3.818C49.407,66.254,48.34,66.248,46.78,66.334z M45.034,33.141   c-0.836,1.444-1.691,2.208-2.493,2.208c-0.004,0-0.008,0-0.011,0c-0.825-0.007-1.565-0.825-1.993-1.459   c0.09-0.09,0.149-0.208,0.151-0.336l0.04-2.346c0.69,0.394,1.445,0.628,2.223,0.628c0.343,0,0.684-0.042,1.016-0.126   c0.164-0.042,0.313-0.119,0.47-0.179L45.034,33.141z M41.403,21.593c0.251-0.064,0.51-0.096,0.769-0.096   c1.827,0,3.551,1.57,4.1,3.734c0.313,1.239,0.211,2.5-0.288,3.552c-0.486,1.021-1.288,1.717-2.261,1.964   c-0.252,0.063-0.512,0.096-0.771,0.096c-1.824,0-3.547-1.569-4.095-3.732C38.216,24.586,39.359,22.111,41.403,21.593z    M22.942,10.729c0.754-2.363,2.074-3.831,3.444-3.831c0.197,0,0.394,0.031,0.587,0.093c1.539,0.491,1.988,2.654,1.117,5.382   c-0.863,2.702-2.5,4.225-4.031,3.736c-0.694-0.221-1.183-0.787-1.415-1.635C22.373,13.481,22.476,12.187,22.942,10.729z    M17.774,30.35l0.52,0.852l-0.599,0.783l-0.792-0.086L17.774,30.35z M20.518,33.711c-0.055-0.089-0.137-0.159-0.233-0.198   l-1.908-0.786l0.913-1.193c0.125-0.163,0.136-0.385,0.029-0.56l-0.529-0.866c0.005-0.021,0.016-0.038,0.018-0.059l0.016-0.145   l1.47,1.768l0.655,0.886l6.991,8.186c0.097,0.114,0.236,0.174,0.377,0.174c0.077,0,0.154-0.018,0.226-0.054l7.286-3.718   c0.111-0.057,0.197-0.153,0.24-0.271c0.441-1.202,1.081-1.904,1.721-2.316c0.882,0.969-0.278,5.227-1.141,7.002   c-0.004,0.001-0.008,0-0.012,0.001c-0.037,0.013-0.065,0.038-0.098,0.059l-9.041,3.413L20.518,33.711z M38.851,58.131   c0.824-2.393,2.135-2.861,2.199-2.883c0.068-0.023,0.129-0.061,0.18-0.105c1.285,0.639,5.061,2.404,7.565,2.404   c0.329,0,0.631-0.037,0.907-0.104l0.027,3.732l-3.059,3.652c-0.604-0.41-2.231-1.453-4.011-2.094l-0.051-1.348   c-0.005-0.148-0.078-0.287-0.197-0.377c-0.12-0.09-0.273-0.121-0.419-0.084l-1.879,0.473c-1.2-0.35-2.033-0.59-2.625-0.748   C37.915,60.188,38.407,59.42,38.851,58.131z M19.466,74.023l-2.235-1.338l0.253-0.652c0.523,0.561,1.085,0.875,1.68,0.908   c0.036,0.002,0.072,0.004,0.107,0.004c0.133,0,0.256-0.018,0.375-0.041L19.466,74.023z M23.265,67.938   c-0.064-0.006-0.126,0.01-0.187,0.027c-1.462-1.188-1.487-2.047-1.392-2.424l14.265,0.68c0.187,0.012,0.351-0.082,0.446-0.234   l2.431-3.926c0.376,0.107,0.759,0.217,1.136,0.328c0.084,0.023,0.175,0.027,0.26,0.004l1.416-0.355l0.04,1.074   c0.008,0.207,0.145,0.389,0.342,0.453c1.275,0.418,2.537,1.115,3.367,1.623c-0.315,0.48-0.995,1.52-1.039,1.586   c-0.002,0.002-0.003,0.004-0.004,0.006c-0.812,1.238-1.581,1.773-2.855,2.66l-0.267,0.188c-0.444,0.256-3.192,0.402-16.617-1.504   C23.902,68.023,23.423,67.955,23.265,67.938z M24.826,82.033l0.114-0.684c0.523,0.371,1.038,0.563,1.537,0.563   c0.098,0,0.196-0.006,0.293-0.021c0.172-0.025,0.323-0.076,0.464-0.137l0.051,1.135L24.826,82.033z M49.08,69.191   c-0.109,1.477-1.316,2.865-2.543,4.162c-0.93,0.912-13.177,2.463-16.767,2.809c-0.063,0.006-0.119,0.035-0.174,0.063   c-1.797-0.93-1.896-1.824-1.851-2.17l13.245-3.268c0.096-0.021,0.17-0.078,0.233-0.145c0.257-0.049,0.444-0.115,0.565-0.199   l0.27-0.189c1.301-0.904,2.168-1.512,3.065-2.854c0.06,0.018,0.124,0.027,0.188,0.023c2.04-0.154,3.247-0.176,3.912-0.152   c-0.042,0.561-0.136,1.816-0.143,1.908C49.08,69.184,49.08,69.188,49.08,69.191z M68.4,26.433l-10.244,6.193   c-2.198,1.812-5.592,4.682-6.979,6.239c-0.703-2.925-2.609-5.159-3.56-6.123c3.354-1.232,9.303-2.692,9.447-2.735l10.055-4.593   c0.046-0.021,0.089-0.049,0.126-0.083c0.376-0.339,2.14-1.951,2.731-2.869c0.107,0.136,0.232,0.332,0.325,0.513   c0.122,0.24,0.413,0.337,0.655,0.224l1.801-0.854l0.563,0.588C72.643,24.296,69.626,25.882,68.4,26.433z"/><path fill="#000000" d="M37.718,12.486c0.168,0,0.329-0.038,0.482-0.095c0.003,0,0.005,0.002,0.008,0.002   c0.07,0,0.142-0.015,0.21-0.046l4.428-2.074c0.166-0.078,0.276-0.242,0.285-0.426c0.008-0.185-0.086-0.358-0.246-0.451   l-1.891-1.107l-0.737-1.651c-0.072-0.162-0.225-0.272-0.4-0.291c-0.174-0.021-0.348,0.057-0.453,0.199l-2.521,3.43   c-0.033,0.045-0.051,0.095-0.067,0.145c-0.049,0.043-0.111,0.07-0.154,0.122c-0.479,0.583-0.398,1.449,0.184,1.931   C37.092,12.375,37.401,12.486,37.718,12.486z M37.428,10.874c0.072-0.087,0.179-0.138,0.293-0.138c0.062,0,0.153,0.015,0.24,0.088   c0.078,0.064,0.126,0.155,0.136,0.256c0.01,0.1-0.021,0.198-0.083,0.274c-0.114,0.136-0.291,0.255-0.537,0.053   C37.317,11.275,37.295,11.035,37.428,10.874z M39.073,10.944c-0.018-0.141-0.062-0.274-0.12-0.4l1.692-1.311l0.925,0.542   L39.073,10.944z M39.7,7.82l0.296,0.663l-1.781,1.379c-0.004-0.001-0.007-0.005-0.011-0.005L39.7,7.82z"/></g><text x="0" y="105" fill="#000000" font-size="5px" font-weight="bold" font-family="'Helvetica Neue', Helvetica, Arial-Unicode, Arial, Sans-serif">Created by Gilad Sotil</text><text x="0" y="110" fill="#000000" font-size="5px" font-weight="bold" font-family="'Helvetica Neue', Helvetica, Arial-Unicode, Arial, Sans-serif">from the Noun Project</text></svg>