<svg xmlns="http://www.w3.org/2000/svg" xmlns:xlink="http://www.w3.org/1999/xlink" version="1.1" x="0px" y="0px" viewBox="0 0 90 112.5" enable-background="new 0 0 90 90" xml:space="preserve"><g><path fill="#000000" d="M7.79,66.461c0.071,0,0.143-0.016,0.209-0.047c0.149-0.068,0.254-0.209,0.28-0.371l0.38-2.363   c0.001,0,0.006-0.006,0.007-0.006c0.004-0.004,0.005-0.012,0.009-0.016l2.428-3.045c0.215,0.029,0.533,0.074,0.931,0.131   c5.653,0.803,9.29,1.225,11.647,1.406l-9.434,2.328l-1.4,0.24c-0.224,0.037-0.394,0.223-0.411,0.449l-0.187,2.42l-0.878,5.227   c-0.04,0.238,0.098,0.471,0.326,0.551l3.26,1.135c0.053,0.02,0.108,0.027,0.163,0.027c0.105,0,0.209-0.033,0.296-0.098   c0.132-0.098,0.207-0.256,0.199-0.42l-0.107-2.391c0.001,0,0.005-0.008,0.006-0.008c0.004-0.008,0.004-0.016,0.008-0.023   l1.761-3.475c2.02-0.213,14.558-1.59,15.745-2.846c1.246-1.316,2.473-2.744,2.596-4.414l-0.035-0.002   c0.036-0.199,0.066-0.482,0.1-0.889c0.017-0.006,0.034-0.004,0.051-0.012c0.131-0.063,0.486-0.262,0.641-0.592   c0.047-0.08,0.077-0.168,0.075-0.262l-0.001-0.051c0-0.008,0.004-0.01,0.004-0.018c0-0.01-0.004-0.021-0.005-0.033l-0.189-9.656   c0-0.021-0.009-0.041-0.012-0.063c0.051-0.234,0.033-0.558-0.028-1.074c-0.01-0.084-0.019-0.15-0.02-0.181l-0.082-2.919   c-0.023-0.931-0.165-2.04-0.302-3.113c-0.162-1.271-0.33-2.586-0.309-3.633c0.007-0.341,0.19-0.609,0.422-0.95   c0.3-0.439,0.672-0.985,0.602-1.778c-0.093-1.061-0.462-1.608-0.853-2.188c-0.193-0.287-0.393-0.583-0.586-0.979l-0.201-0.413   c0.026-0.035,0.064-0.059,0.081-0.101c0.49-0.572,4.79-2.643,8.779-4.369l9.311-5.628c0.464-0.206,4.545-2.073,5.095-4.034   c0.048-0.169,0.002-0.351-0.119-0.478l-0.945-0.987c-0.147-0.154-0.377-0.197-0.57-0.105l-1.541,0.73   c-0.256-0.385-0.543-0.719-0.989-0.71c-0.137,0.003-0.474,0.058-0.673,0.496c-0.186,0.413-1.459,1.675-2.339,2.473l-9.083,4.159   c-8.021,1.903-9.711,2.734-10.466,3.26c-0.068,0.013-0.132,0.039-0.189,0.079l-0.685-0.697c0.907-0.392,1.656-1.107,2.127-2.1   c0.554-1.167,0.671-2.555,0.328-3.909c-0.61-2.406-2.583-4.152-4.691-4.152c-0.317,0-0.634,0.04-0.941,0.117   c-1.175,0.298-2.135,1.122-2.705,2.32c-0.554,1.167-0.67,2.556-0.327,3.91c0.298,1.178,0.927,2.193,1.734,2.928   c-0.019,0.052-0.034,0.107-0.035,0.165l-0.034,1.986c-0.796-0.043-2.189,0.235-3.813,2.168l-6.523,4.11l-6.127-7.173l-0.6-0.812   l-1.668-2.009l0.635-2.057l3.601-9.028c0.186,0.037,0.373,0.062,0.562,0.062c1.844,0,3.485-1.689,4.389-4.52   c1.213-3.802-0.01-6.068-1.761-6.629c-0.29-0.092-0.589-0.139-0.889-0.139c-1.844,0-3.485,1.69-4.389,4.521   c-1.069,3.348-0.247,5.504,1.161,6.353l-3.289,8.246c-0.047,0.043-0.086,0.094-0.115,0.155l-1.428,3.049   c-0.132,0.032-0.253,0.102-0.321,0.224l-1.521,2.703c-0.068,0.121-0.069,0.261-0.027,0.391c-0.024,0.03-0.052,0.057-0.069,0.093   L3.353,28.12c-0.022,0.048-0.037,0.1-0.043,0.152c-0.066,0.559,0.151,0.838,0.344,0.974c0.159,0.111,0.336,0.149,0.505,0.149   c0.307,0,0.583-0.127,0.658-0.165c0.115-0.058,0.202-0.157,0.245-0.278l0.379-1.08l2.281,0.939l8.012,9.717   c0.096,0.117,0.237,0.181,0.383,0.181c0.052,0,0.104-0.009,0.155-0.025l6.867-2.261l4.113,8.173l-1.394,2.241   c-0.043,0.009-0.087,0.015-0.129,0.036c-0.063,0.033-1.547,0.824-2.499,3.693c-0.382,1.148-0.598,1.809-0.694,2.21   c-0.005,0.005-0.01,0.009-0.014,0.014c-0.125,0.12-0.196,0.368-0.157,0.536c0.116,0.502,1.151,1.012,1.58,1.203l-1.584,2.557   L8.872,56.434l-1.419-0.051c-0.222-0.025-0.431,0.141-0.494,0.357l-0.674,2.332L4.364,64.01c-0.087,0.227,0,0.482,0.208,0.607   l2.963,1.773C7.612,66.438,7.701,66.461,7.79,66.461z M12.42,72.566l0.088-0.529c0.47,0.322,0.934,0.484,1.384,0.484   c0.092,0,0.184-0.006,0.275-0.02c0.141-0.021,0.266-0.061,0.384-0.105l0.042,0.926L12.42,72.566z M34.637,60.781   c-0.099,1.346-1.204,2.617-2.326,3.803c-0.896,0.836-12.112,2.254-15.394,2.57c-0.055,0.004-0.103,0.031-0.152,0.055   c-1.575-0.818-1.699-1.6-1.669-1.92l12.151-2.998c0.086-0.021,0.155-0.068,0.216-0.127c0.257-0.051,0.421-0.119,0.532-0.195   l0.251-0.176c1.192-0.83,1.989-1.391,2.813-2.617c0.05,0.014,0.102,0.025,0.156,0.021c1.821-0.137,2.931-0.158,3.55-0.139   c-0.04,0.535-0.121,1.623-0.127,1.711C34.638,60.773,34.637,60.777,34.637,60.781z M35.446,58.119   c-0.37-0.057-1.138-0.098-2.806-0.008c0.075-0.094,0.151-0.189,0.196-0.303l2.545-3.039L35.446,58.119z M42.223,24.429l9.245-4.223   c0.046-0.021,0.089-0.049,0.126-0.083c0.341-0.307,1.916-1.746,2.488-2.599c0.089,0.12,0.188,0.276,0.262,0.421   c0.121,0.24,0.412,0.337,0.654,0.224l1.631-0.773l0.478,0.499c-0.586,1.108-2.972,2.494-4.497,3.178l-9.306,5.626   c-6.044,2.609-8.12,3.83-8.854,4.433l-1.891-3.877C33.573,26.757,35.897,25.936,42.223,24.429z M27,28.014l0.036-2.093   c0.625,0.346,1.306,0.554,2.006,0.554c0.146,0,0.291-0.011,0.435-0.028l1.225,1.247c-0.739,1.221-1.483,1.869-2.162,1.851   c-0.689-0.008-1.306-0.681-1.674-1.222C26.942,28.236,26.999,28.133,27,28.014z M25.576,18.839c0.44-0.928,1.169-1.561,2.052-1.784   c0.228-0.058,0.462-0.087,0.698-0.087c1.661,0,3.23,1.432,3.729,3.403c0.287,1.131,0.193,2.281-0.262,3.24   c-0.44,0.926-1.169,1.56-2.053,1.784c-1.838,0.468-3.856-1.064-4.426-3.315C25.027,20.949,25.121,19.798,25.576,18.839z M10.38,6.2   c0.755-2.363,2.074-3.831,3.444-3.831c0.197,0,0.395,0.031,0.587,0.093c1.539,0.491,1.988,2.655,1.118,5.382   c-0.863,2.702-2.504,4.225-4.031,3.736C9.958,11.088,9.509,8.926,10.38,6.2z M5.892,25.147l0.428,0.702l-0.52,0.68l-0.646-0.071   L5.892,25.147z M8.408,28.084c-0.052-0.063-0.119-0.112-0.194-0.143l-1.707-0.703l0.808-1.055c0.125-0.164,0.136-0.386,0.029-0.562   l-0.462-0.756c0.013-0.021,0.033-0.037,0.043-0.061l1.249,1.503l0.604,0.817l6.428,7.527c0.098,0.114,0.237,0.174,0.378,0.174   c0.091,0,0.182-0.025,0.264-0.077l6.953-4.381c0.044-0.028,0.084-0.063,0.118-0.104c0.494-0.596,0.948-1.009,1.352-1.292   c0.771,0.875-0.291,4.786-1.059,6.38c-0.017,0.006-0.034,0.005-0.05,0.014c-0.004,0.002-0.007,0.006-0.011,0.009l-6.868,2.261   L8.408,28.084z M26.188,47.753c0.031-0.017,0.052-0.042,0.078-0.063c1.37,0.617,5.56,2.4,8.14,2.4c0.293,0,0.559-0.029,0.804-0.08   l0.025,3.391l-2.78,3.318c-0.578-0.389-2.041-1.318-3.642-1.9l-0.045-1.211c-0.005-0.15-0.078-0.289-0.198-0.379   c-0.119-0.09-0.273-0.121-0.418-0.084l-1.718,0.432c-1.451-0.422-2.321-0.67-2.866-0.803c0.091-0.313,0.264-0.87,0.604-1.896   C24.975,48.459,26.153,47.772,26.188,47.753z M22.604,58.092c0.179,0.014,0.351-0.08,0.446-0.234l2.22-3.582   c0.337,0.096,0.679,0.193,1.016,0.291c0.083,0.025,0.174,0.027,0.26,0.006l1.254-0.316l0.035,0.939   c0.008,0.207,0.144,0.389,0.341,0.453c1.152,0.377,2.292,1.004,3.053,1.467c-0.299,0.455-0.89,1.357-0.932,1.422   c-0.002,0.002-0.003,0.006-0.005,0.008c-0.741,1.131-1.445,1.621-2.612,2.434l-0.245,0.172c-0.422,0.23-2.969,0.357-15.26-1.389   c-0.647-0.092-1.085-0.152-1.23-0.17c-0.057-0.006-0.109,0.012-0.163,0.023c-1.276-1.039-1.336-1.797-1.262-2.146L22.604,58.092z    M5.44,63.98l0.196-0.506c0.476,0.494,0.988,0.768,1.529,0.797c0.035,0.002,0.07,0.004,0.104,0.004   c0.109,0,0.198-0.029,0.296-0.047l-0.15,0.934L5.44,63.98z"/><path fill="#000000" d="M22.969,8.291c0.168,0,0.329-0.038,0.482-0.095c0.003,0,0.006,0.002,0.009,0.002   c0.07,0,0.142-0.015,0.21-0.047l4.428-2.073C28.265,6,28.375,5.835,28.383,5.652c0.008-0.185-0.086-0.358-0.245-0.451l-1.891-1.108   l-0.738-1.651c-0.072-0.162-0.225-0.272-0.4-0.292c-0.175-0.021-0.348,0.057-0.453,0.199l-2.521,3.43   c-0.033,0.045-0.051,0.096-0.067,0.145c-0.05,0.044-0.112,0.07-0.155,0.123c-0.479,0.583-0.397,1.448,0.185,1.93   C22.343,8.179,22.652,8.291,22.969,8.291z M22.678,6.678c0.073-0.087,0.18-0.138,0.293-0.138c0.062,0,0.153,0.015,0.241,0.087   c0.078,0.064,0.126,0.155,0.136,0.256c0.01,0.1-0.021,0.198-0.083,0.274c-0.114,0.137-0.29,0.255-0.537,0.053   C22.567,7.079,22.546,6.839,22.678,6.678z M24.324,6.75c-0.018-0.142-0.062-0.274-0.12-0.4l1.693-1.312l0.925,0.542L24.324,6.75z    M24.951,3.624l0.296,0.663l-1.781,1.379c-0.004-0.002-0.007-0.005-0.011-0.006L24.951,3.624z"/><path fill="#000000" d="M26.447,69.639c-2.562,2.254-4.83,4.373-4.821,4.373c0,0,0,0,0,0c-1.774,1.219-8.082,7.268-9.773,8.9   l-0.45-0.168c-1.44-0.502-1.283-1.641-1.259-1.773c0.007-0.035,0-0.07-0.001-0.107l2.968-3.461   c0.179-0.209,0.155-0.521-0.053-0.699c-0.207-0.18-0.521-0.156-0.699,0.053l-3.035,3.541l-1.611,1.086   c-0.187,0.125-0.265,0.359-0.192,0.572l2.083,6.084c0.065,0.191,0.242,0.324,0.444,0.334l4.917,0.25c0.009,0,0.017,0,0.025,0   c0.137,0,0.268-0.055,0.362-0.156c0.1-0.107,0.147-0.252,0.13-0.396l-0.167-1.416c-0.02-0.166-0.121-0.313-0.271-0.387   l-2.309-1.154l-0.087-0.291c0.001,0,0.002-0.002,0.003-0.002c0.153-0.229,0.091-0.537-0.137-0.689   c-0.026-0.018-0.062-0.035-0.092-0.053l-0.079-0.262c1.304-1.26,8.086-7.781,9.901-9.033c0.022-0.021,2.292-2.143,4.856-4.4   c0.206-0.18,0.226-0.494,0.045-0.699C26.965,69.477,26.651,69.457,26.447,69.639z M14.429,87.604l-3.386-0.174   c0.084-0.023,0.164-0.061,0.228-0.131c0.231-0.248,1-0.932,1.625-0.996l1.466,0.732L14.429,87.604z"/><path fill="#000000" d="M86.185,51.119c-1.226-1.75-4.04-1.682-6.854,0.288c-1.411,0.987-2.399,2.106-2.856,3.239   c-0.359,0.887-0.369,1.756-0.063,2.512l-7.621,4.57c-0.064,0.006-0.127,0.021-0.188,0.053l-1.695,0.887   c-0.07-0.174-0.191-0.326-0.332-0.443l-2.188-1.369l-3.225-4.76l-5.188-10.733c-0.004-0.143-0.068-0.269-0.172-0.357l-0.178-0.366   l1.846-1.195c0.407,0.113,0.83,0.179,1.268,0.179c2.961,0,5.371-2.746,5.371-6.121s-2.41-6.121-5.371-6.121   s-5.371,2.746-5.371,6.121c0,0.967,0.203,1.879,0.555,2.693c-0.009,0.005-0.02,0.005-0.028,0.011l-1.646,1.022   c-0.069-0.068-0.131-0.126-0.199-0.193c-0.049-0.099-0.127-0.176-0.23-0.224c-7.407-7.254-9.618-7.485-10.255-7.112l-2.924,1.262   c-0.251,0.109-0.367,0.4-0.259,0.652c0.109,0.252,0.4,0.366,0.652,0.259l2.962-1.278c0.01-0.004,0.019-0.009,0.029-0.014   c0.181-0.026,1.833,0.038,7.844,5.729c-1.187,1.317-3.714,1.62-4.494,1.682l-3.151-3.862c-0.12-0.147-0.313-0.211-0.499-0.169   l-3.182,0.754c-0.267,0.063-0.432,0.331-0.369,0.598c0.063,0.266,0.331,0.428,0.597,0.368l2.879-0.683l2.804,3.437l-6.111,5.003   c-0.212,0.173-0.243,0.486-0.069,0.698c0.098,0.119,0.241,0.182,0.384,0.182c0.11,0,0.222-0.037,0.314-0.113l6.369-5.214   c0.744-0.047,3.73-0.344,5.245-1.996c0.159,0.154,0.332,0.327,0.498,0.487c-0.089,0.772-0.185,2.718,0.956,3.67   c0.398,0.332,0.89,0.5,1.471,0.5c0.412,0,0.874-0.096,1.374-0.264l0.08,0.166c-0.193,1.309-0.927,4.145-2.531,4.736   c-0.012,0.005-0.02,0.014-0.03,0.02c-0.013,0.006-0.026,0.006-0.038,0.013l-12.964,7.2c-0.04,0.021-0.068,0.055-0.099,0.084   c-0.107,0.025-0.208,0.08-0.28,0.176c-0.166,0.219-0.123,0.529,0.096,0.695l8.273,6.258c2.471,2.406,2.955,3.967,2.927,4.85   c-0.018,0.559-0.245,0.873-0.343,0.984l-14.895,4.965c-0.088,0.027-0.161,0.086-0.219,0.152c-1.836-0.172-2.35-0.85-2.491-1.219   l10.469-5.631c0.163-0.086,0.263-0.258,0.261-0.441c-0.002-0.186-0.106-0.354-0.271-0.438l-6.286-3.205   c-0.245-0.125-0.542-0.029-0.667,0.215c-0.125,0.244-0.027,0.543,0.216,0.668l5.442,2.775l-10.311,5.545l-1.313,0.814   c-0.193,0.119-0.28,0.354-0.211,0.57l0.801,2.52l1.25,5.627c0.051,0.227,0.253,0.387,0.484,0.387c0.008,0,0.017,0,0.025,0   l3.75-0.188c0.164-0.008,0.314-0.098,0.399-0.238c0.085-0.141,0.095-0.314,0.026-0.463l-1.09-2.379l0-0.008   c0.001-0.004,0.003-0.014,0.003-0.016c0.001-0.006-0.001-0.01,0-0.016l0.353-4.197l14.689-4.896   c0.055-0.018,0.105-0.045,0.151-0.08c0.071-0.057,0.704-0.588,0.763-1.715c0.082-1.588-1.002-3.49-3.271-5.695l-7.713-5.84   l12.147-6.745l4.013,5.294l5.03,5.689c0.035,0.039,0.076,0.072,0.122,0.1c0.183,0.195,0.637,1.01,1.139,1.988l-0.655,0.342   c-0.047,0.025-0.09,0.057-0.127,0.096c-0.392,0.404-0.389,0.758-0.316,0.982c0.167,0.525,0.807,0.67,0.934,0.693   c0.03,0.006,0.061,0.008,0.092,0.008c0.096,0,0.19-0.027,0.271-0.082l0.611-0.4c0.031,0.064,0.064,0.131,0.095,0.195   c0.083,0.176,0.26,0.283,0.448,0.283c0.039,0,0.078-0.004,0.117-0.014l1.938-0.469c0.141-0.033,0.259-0.127,0.324-0.256   c0.066-0.129,0.072-0.281,0.018-0.414l-0.305-0.736l2.371-1.695l8.352-5.006c0.589,0.662,1.435,1.041,2.447,1.041   c1.258,0,2.703-0.545,4.177-1.576C86.838,55.17,87.238,52.627,86.185,51.119z M35.234,82.73l-2.601,0.131l-0.151-0.678   c0.273,0.063,0.536,0.105,0.778,0.105c0.42,0,0.795-0.096,1.121-0.287c0.15-0.09,0.271-0.195,0.38-0.305L35.234,82.73z    M58.74,32.374c2.414,0,4.379,2.301,4.379,5.129s-1.965,5.129-4.379,5.129c-0.351,0-0.688-0.062-1.015-0.153   c-0.071-0.051-0.153-0.078-0.239-0.087c-1.801-0.636-3.125-2.574-3.125-4.889C54.361,34.675,56.326,32.374,58.74,32.374z    M52.679,44.39c-0.509-0.423-0.642-1.316-0.645-2.064c0.048,0.015,0.095,0.028,0.145,0.028c0.091,0,0.181-0.024,0.262-0.075   l1.944-1.208c0.511,0.808,1.188,1.466,1.977,1.912l-1.641,1.063c-0.146,0.096-0.224,0.257-0.222,0.423   C53.683,44.729,53.065,44.712,52.679,44.39z M62.213,61.672l-4.961-5.609l-3.896-5.141c1.29-0.834,1.974-2.602,2.315-3.911   l4.635,9.577l3.319,4.912c0.039,0.057,0.089,0.105,0.147,0.141l2.107,1.318c-0.117,0.059-0.334,0.137-0.718,0.207   c-0.036,0.008-0.066,0.029-0.1,0.043c-0.202-0.076-0.391-0.09-0.54-0.072c-0.408,0.047-0.754,0.303-1.016,0.574   C62.762,62.279,62.411,61.828,62.213,61.672z M64.403,65.514c-0.146-0.307-0.278-0.576-0.407-0.836   c0.188-0.262,0.45-0.535,0.641-0.557c0.025-0.002,0.102-0.012,0.236,0.137c0.038,0.043,0.085,0.072,0.134,0.098l0.38,0.92   L64.403,65.514z M82.999,56.646c-2.325,1.627-4.563,1.828-5.472,0.529c-0.417-0.598-0.463-1.342-0.134-2.158   c0.386-0.953,1.253-1.92,2.506-2.798c1.308-0.915,2.556-1.398,3.61-1.398c0.82,0,1.465,0.3,1.862,0.868   C86.298,53.012,85.344,55.006,82.999,56.646z"/></g><text x="0" y="105" fill="#000000" font-size="5px" font-weight="bold" font-family="'Helvetica Neue', Helvetica, Arial-Unicode, Arial, Sans-serif">Created by Gilad Sotil</text><text x="0" y="110" fill="#000000" font-size="5px" font-weight="bold" font-family="'Helvetica Neue', Helvetica, Arial-Unicode, Arial, Sans-serif">from the Noun Project</text></svg>